<svg aria-hidden="true" style="width:0;height:0;position:absolute;overflow:hidden" xmlns="http://www.w3.org/2000/svg"><defs><symbol id="icon-cust" viewBox="0 0 308 32"><path d="M20 30.333h-8C4.76 30.333 1.667 27.24 1.667 20v-8C1.667 4.76 4.76 1.667 12 1.667h8c7.24 0 10.333 3.093 10.333 10.333v8c0 7.24-3.093 10.333-10.333 10.333zM12 3.667c-6.147 0-8.333 2.187-8.333 8.333v8c0 6.147 2.187 8.333 8.333 8.333h8c6.147 0 8.333-2.187 8.333-8.333v-8c0-6.147-2.187-8.333-8.333-8.333h-8z"/><path d="M20.001 30.333h-8c-1.76 0-3.227-.173-4.467-.547a1.022 1.022 0 0 1-.72-1.04c.333-3.987 4.373-7.12 9.187-7.12s8.84 3.12 9.187 7.12a.983.983 0 0 1-.72 1.04c-1.24.373-2.707.547-4.467.547zM8.961 28.08c.88.173 1.88.253 3.04.253h8c1.16 0 2.16-.08 3.04-.253-.707-2.56-3.627-4.453-7.04-4.453s-6.333 1.893-7.04 4.453z"/><path fill="none" d="M20 2.667h-8c-6.667 0-9.333 2.667-9.333 9.333v8c0 5.04 1.52 7.8 5.147 8.827.293-3.467 3.853-6.2 8.187-6.2s7.893 2.733 8.187 6.2C27.815 27.8 29.335 25.04 29.335 20v-8c0-6.667-2.667-9.333-9.333-9.333zm-4 16.226c-2.64 0-4.773-2.147-4.773-4.787S13.36 9.333 16 9.333c2.64 0 4.773 2.133 4.773 4.773S18.64 18.893 16 18.893z"/><path d="M16 19.893c-3.187 0-5.773-2.6-5.773-5.787S12.814 8.333 16 8.333c3.187 0 5.773 2.587 5.773 5.773S19.186 19.893 16 19.893zm0-9.56a3.778 3.778 0 0 0-3.773 3.773c0 2.093 1.693 3.787 3.773 3.787a3.78 3.78 0 0 0 0-7.56zM51.357 16.152c0-1.269.292-2.408.877-3.416a6.329 6.329 0 0 1 2.408-2.352 6.717 6.717 0 0 1 3.341-.859c1.381 0 2.607.342 3.677 1.027 1.083.672 1.867 1.63 2.352 2.875h-2.557c-.336-.684-.803-1.195-1.4-1.531s-1.288-.504-2.072-.504c-.859 0-1.624.193-2.296.579s-1.201.94-1.587 1.661c-.373.722-.56 1.562-.56 2.52s.187 1.798.56 2.52a4.217 4.217 0 0 0 1.587 1.68c.672.386 1.437.579 2.296.579.784 0 1.475-.168 2.072-.504s1.064-.846 1.4-1.531h2.557c-.485 1.244-1.269 2.203-2.352 2.875-1.07.672-2.296 1.008-3.677 1.008-1.22 0-2.333-.28-3.341-.84a6.467 6.467 0 0 1-2.408-2.371c-.585-1.008-.877-2.147-.877-3.416zm24.275-3.771v10.285h-2.128v-1.213a3.517 3.517 0 0 1-1.325 1.008 4.206 4.206 0 0 1-1.717.355c-.809 0-1.537-.168-2.184-.504a3.713 3.713 0 0 1-1.512-1.493c-.361-.66-.541-1.456-.541-2.389v-6.048h2.109v5.731c0 .921.23 1.63.691 2.128.461.485 1.089.728 1.885.728s1.425-.243 1.885-.728c.473-.498.709-1.207.709-2.128v-5.731h2.128zm6.355 10.454c-.809 0-1.537-.143-2.184-.429-.635-.299-1.139-.697-1.512-1.195a3.024 3.024 0 0 1-.597-1.699h2.203c.037.436.243.803.616 1.101.386.286.865.429 1.437.429.597 0 1.058-.112 1.381-.336.336-.236.504-.535.504-.896 0-.386-.187-.672-.56-.859-.361-.187-.939-.392-1.736-.616-.771-.212-1.4-.417-1.885-.616s-.908-.504-1.269-.915c-.348-.411-.523-.952-.523-1.624 0-.548.162-1.045.485-1.493.324-.46.784-.821 1.381-1.083.61-.261 1.307-.392 2.091-.392 1.17 0 2.109.299 2.819.896.722.585 1.108 1.388 1.157 2.408h-2.128c-.037-.46-.224-.828-.56-1.101s-.79-.411-1.363-.411c-.56 0-.989.106-1.288.317s-.448.492-.448.84c0 .274.1.504.299.691s.442.336.728.448c.286.1.709.23 1.269.392.747.199 1.357.404 1.829.616.485.199.902.498 1.251.896s.529.927.541 1.587c0 .585-.162 1.108-.485 1.568s-.784.821-1.381 1.083c-.585.261-1.275.392-2.072.392zm8.534-8.718v5.693c0 .386.087.666.261.84.187.162.498.243.933.243h1.307v1.773h-1.68c-.958 0-1.692-.224-2.203-.672s-.765-1.176-.765-2.184v-5.693h-1.213v-1.736h1.213V9.824h2.147v2.557h2.501v1.736h-2.501zm8.737 8.718c-.971 0-1.848-.218-2.632-.653a4.84 4.84 0 0 1-1.848-1.867c-.448-.809-.672-1.742-.672-2.8 0-1.045.23-1.972.691-2.781s1.089-1.431 1.885-1.867c.797-.436 1.686-.653 2.669-.653s1.873.218 2.669.653c.797.436 1.425 1.058 1.885 1.867s.691 1.736.691 2.781-.236 1.972-.709 2.781a4.96 4.96 0 0 1-1.941 1.885c-.809.436-1.705.653-2.688.653zm0-1.848c.548 0 1.058-.131 1.531-.392.485-.261.877-.653 1.176-1.176s.448-1.157.448-1.904c0-.747-.143-1.375-.429-1.885-.286-.523-.666-.915-1.139-1.176s-.983-.392-1.531-.392a3.12 3.12 0 0 0-1.531.392c-.46.261-.827.653-1.101 1.176-.274.51-.411 1.139-.411 1.885 0 1.108.28 1.966.84 2.576.573.597 1.288.896 2.147.896zm19.706-8.774c.809 0 1.531.168 2.165.504a3.574 3.574 0 0 1 1.512 1.493c.373.66.56 1.456.56 2.389v6.067h-2.109v-5.749c0-.921-.23-1.624-.691-2.109-.461-.498-1.089-.747-1.885-.747s-1.431.249-1.904.747c-.461.485-.691 1.188-.691 2.109v5.749h-2.109v-5.749c0-.921-.23-1.624-.691-2.109-.461-.498-1.089-.747-1.885-.747s-1.431.249-1.904.747c-.461.485-.691 1.188-.691 2.109v5.749h-2.128V12.381h2.128v1.176c.348-.423.79-.753 1.325-.989s1.107-.355 1.717-.355c.821 0 1.555.174 2.203.523s1.145.852 1.493 1.512c.311-.622.796-1.114 1.456-1.475a4.252 4.252 0 0 1 2.128-.56zm16.185 5.059c0 .386-.025.734-.075 1.045h-7.859c.062.821.367 1.481.915 1.979s1.22.747 2.016.747c1.145 0 1.954-.479 2.427-1.437h2.296a4.655 4.655 0 0 1-1.699 2.333c-.809.597-1.817.896-3.024.896-.983 0-1.867-.218-2.651-.653a4.883 4.883 0 0 1-1.829-1.867c-.435-.809-.653-1.742-.653-2.8s.212-1.985.635-2.781a4.596 4.596 0 0 1 1.811-1.867c.784-.436 1.68-.653 2.688-.653.971 0 1.836.212 2.595.635s1.351 1.02 1.773 1.792c.423.759.635 1.636.635 2.632zm-2.221-.672c-.012-.784-.292-1.412-.84-1.885s-1.226-.709-2.035-.709c-.734 0-1.363.236-1.885.709-.523.46-.834 1.089-.933 1.885h5.693zm6.257-2.725a3.28 3.28 0 0 1 1.232-1.213c.523-.299 1.139-.448 1.848-.448v2.203h-.541c-.835 0-1.469.212-1.904.635-.424.423-.635 1.157-.635 2.203v5.413h-2.128V12.383h2.128v1.493zm8.583 8.96c-.809 0-1.537-.143-2.184-.429-.635-.299-1.139-.697-1.512-1.195a3.016 3.016 0 0 1-.597-1.699h2.203c.037.436.243.803.616 1.101.385.286.864.429 1.437.429.597 0 1.057-.112 1.381-.336.336-.236.504-.535.504-.896 0-.386-.187-.672-.56-.859-.361-.187-.94-.392-1.736-.616-.772-.212-1.4-.417-1.885-.616s-.909-.504-1.269-.915c-.349-.411-.523-.952-.523-1.624 0-.548.161-1.045.485-1.493.323-.46.784-.821 1.381-1.083.609-.261 1.307-.392 2.091-.392 1.169 0 2.109.299 2.819.896.721.585 1.107 1.388 1.157 2.408h-2.128c-.037-.46-.224-.828-.56-1.101s-.791-.411-1.363-.411c-.56 0-.989.106-1.288.317s-.448.492-.448.84c0 .274.099.504.299.691.199.187.441.336.728.448.285.1.709.23 1.269.392.747.199 1.356.404 1.829.616.485.199.901.498 1.251.896.348.398.528.927.541 1.587a2.67 2.67 0 0 1-.485 1.568c-.324.46-.784.821-1.381 1.083-.585.261-1.276.392-2.072.392z"/><path fill="none" stroke="#9197b3" style="stroke:var(--color2,#9197b3)" stroke-linejoin="round" stroke-linecap="round" stroke-width="2.667" d="M294.667 21.333 300 16l-5.333-5.333"/></symbol><symbol id="icon-dash" viewBox="0 0 166 32"><path d="M3.047 3.047C4.988 1.106 7.893.364 11.637.364h8.727c3.744 0 6.649.742 8.59 2.683s2.683 4.846 2.683 8.59v8.727c0 3.744-.742 6.649-2.683 8.59s-4.846 2.683-8.59 2.683h-8.727c-3.744 0-6.649-.742-8.59-2.683S.364 24.108.364 20.364v-8.727c0-3.744.742-6.649 2.683-8.59zM4.59 4.59c-1.332 1.332-2.044 3.518-2.044 7.047v8.727c0 3.529.712 5.715 2.044 7.047s3.518 2.044 7.047 2.044h8.727c3.529 0 5.715-.712 7.047-2.044s2.044-3.518 2.044-7.047v-8.727c0-3.529-.712-5.715-2.044-7.047s-3.518-2.044-7.047-2.044h-8.727c-3.529 0-5.715.712-7.047 2.044zm16.866 5.973c1.924 1.912 1.931 5.061-.004 7.009a4.941 4.941 0 0 1-4.98 1.228 1.089 1.089 0 0 0-1.097.268l-1.621 1.615-.469-.475a1.091 1.091 0 0 0-1.552 1.534l.475.481-.609.607-.011.007a.603.603 0 0 1-.211.068l-.036.002-1.766-.235c-.004-.001-.063-.016-.139-.093s-.104-.151-.11-.178l-.23-1.728-.001-.006.002-.02a.779.779 0 0 1 .103-.273l3.732-3.732a1.09 1.09 0 0 0 .271-1.092 4.974 4.974 0 0 1 1.227-4.988c1.929-1.929 5.08-1.932 7.027.002zm1.538-1.548c-2.795-2.778-7.324-2.781-10.108.002a7.144 7.144 0 0 0-1.937 6.519l-3.334 3.335c-.267.282-.45.637-.558.961a2.48 2.48 0 0 0-.122 1.135l.232 1.737.003.022c.084.544.362 1.026.711 1.381.348.354.839.654 1.419.728l1.735.231c.401.057.804-.006 1.136-.115.326-.107.697-.295.986-.594l3.317-3.304a7.12 7.12 0 0 0 6.523-1.94l.002-.002c2.777-2.794 2.783-7.325-.005-10.095zm-6.42 5.094c0 .803.651 1.455 1.455 1.455h.013a1.455 1.455 0 0 0 0-2.91h-.013c-.803 0-1.455.651-1.455 1.455zm47.345-5.568c-1.127-.584-2.444-.876-3.951-.876h-4.623v14.153h4.623c1.507 0 2.824-.278 3.951-.835 1.14-.57 2.016-1.385 2.627-2.444.624-1.059.937-2.308.937-3.747s-.312-2.695-.937-3.767a6.04 6.04 0 0 0-2.627-2.484zm-.143 10.039c-.882.896-2.152 1.344-3.808 1.344h-2.301V9.559h2.301c1.656 0 2.926.462 3.808 1.385S65.1 13.15 65.1 14.793c0 1.629-.441 2.892-1.324 3.788zm5.722-5.416c-.462.869-.692 1.867-.692 2.993s.231 2.138.692 3.034c.475.882 1.113 1.575 1.914 2.077a4.981 4.981 0 0 0 2.647.733c.869 0 1.643-.176 2.321-.529s1.215-.794 1.609-1.324v1.67h2.342v-11.22h-2.342v1.629c-.394-.516-.923-.944-1.588-1.283-.652-.353-1.419-.529-2.301-.529-.977 0-1.873.244-2.688.733-.801.475-1.439 1.147-1.914 2.016zm8.003 1.018c.326.57.489 1.242.489 2.016s-.163 1.453-.489 2.036c-.312.57-.726 1.005-1.242 1.303s-1.073.448-1.67.448c-.584 0-1.14-.149-1.67-.448-.516-.312-.937-.76-1.263-1.344-.312-.584-.468-1.263-.468-2.036s.156-1.439.468-1.996c.326-.57.747-.998 1.263-1.283.516-.299 1.072-.448 1.67-.448s1.154.149 1.67.448c.516.299.93.733 1.242 1.303zm7.366 7.351c-.692-.326-1.242-.76-1.649-1.303a3.299 3.299 0 0 1-.652-1.853h2.403c.041.475.265.876.672 1.201.421.312.943.468 1.568.468.652 0 1.154-.122 1.507-.367.367-.258.55-.584.55-.977 0-.421-.204-.733-.611-.937-.394-.204-1.025-.428-1.894-.672-.842-.231-1.527-.455-2.057-.672s-.991-.55-1.385-.998c-.38-.448-.57-1.039-.57-1.772 0-.597.176-1.14.529-1.629.353-.502.855-.896 1.507-1.181.665-.285 1.425-.428 2.281-.428 1.276 0 2.301.326 3.075.977.787.638 1.208 1.514 1.263 2.627h-2.321c-.041-.502-.244-.903-.611-1.201s-.862-.448-1.487-.448c-.611 0-1.079.115-1.405.346s-.489.536-.489.916c0 .299.109.55.326.753s.482.367.794.489c.312.109.774.251 1.385.428.815.217 1.48.441 1.996.672.529.217.984.543 1.364.977s.577 1.011.591 1.731c0 .638-.177 1.208-.529 1.711s-.855.896-1.507 1.181c-.638.285-1.392.428-2.26.428-.882 0-1.677-.156-2.383-.468zm17.068-10.569c.679.367 1.208.91 1.588 1.629.394.72.591 1.588.591 2.607v6.618h-2.301v-6.272c0-1.005-.251-1.772-.753-2.301-.502-.543-1.188-.815-2.057-.815s-1.561.272-2.077.815c-.502.529-.753 1.296-.753 2.301v6.272h-2.321V6.749h2.321v5.152a3.91 3.91 0 0 1 1.487-1.1 5.078 5.078 0 0 1 1.996-.387c.855 0 1.615.183 2.281.55zm8.867-.02c-.679.339-1.215.781-1.609 1.324V6.749h-2.321v15.069h2.321v-1.629c.394.529.923.964 1.588 1.303.679.339 1.453.509 2.321.509.977 0 1.867-.244 2.668-.733a5.232 5.232 0 0 0 1.914-2.077c.462-.896.692-1.907.692-3.034s-.231-2.125-.692-2.993c-.462-.882-1.093-1.561-1.894-2.036s-1.697-.713-2.688-.713c-.842 0-1.609.176-2.301.529zm4.724 3.217c.326.557.489 1.222.489 1.996s-.163 1.453-.489 2.036a3.349 3.349 0 0 1-1.263 1.344 3.275 3.275 0 0 1-1.67.448c-.584 0-1.14-.149-1.67-.448-.516-.299-.937-.733-1.263-1.303-.312-.584-.468-1.263-.468-2.036s.156-1.446.468-2.016c.326-.57.747-1.005 1.263-1.303a3.345 3.345 0 0 1 3.34 0c.529.285.95.713 1.263 1.283zm6.939 7.128c.855.475 1.812.713 2.871.713 1.072 0 2.05-.238 2.932-.713.896-.489 1.602-1.174 2.118-2.057s.774-1.894.774-3.034-.251-2.152-.753-3.034c-.502-.882-1.188-1.561-2.057-2.036s-1.84-.713-2.912-.713c-1.073 0-2.043.238-2.912.713s-1.554 1.154-2.057 2.036c-.502.882-.753 1.894-.753 3.034 0 1.154.244 2.172.733 3.055a5.28 5.28 0 0 0 2.016 2.036zm4.541-1.731a3.4 3.4 0 0 1-1.67.428c-.937 0-1.717-.326-2.342-.977-.611-.665-.916-1.602-.916-2.81 0-.815.149-1.5.448-2.057.299-.57.699-.998 1.201-1.283.516-.285 1.072-.428 1.67-.428s1.154.143 1.67.428c.516.285.93.713 1.242 1.283.312.557.468 1.242.468 2.057s-.163 1.507-.489 2.077c-.326.57-.753.998-1.283 1.283zm6.164-6.394c-.462.869-.692 1.867-.692 2.993s.231 2.138.692 3.034c.475.882 1.113 1.575 1.914 2.077a4.981 4.981 0 0 0 2.647.733c.869 0 1.643-.176 2.321-.529s1.215-.794 1.609-1.324v1.67h2.342v-11.22h-2.342v1.629c-.394-.516-.923-.944-1.588-1.283-.652-.353-1.419-.529-2.301-.529-.977 0-1.873.244-2.688.733-.801.475-1.439 1.147-1.914 2.016zm8.003 1.018c.326.57.489 1.242.489 2.016s-.163 1.453-.489 2.036c-.312.57-.726 1.005-1.242 1.303s-1.072.448-1.67.448c-.584 0-1.14-.149-1.67-.448-.516-.312-.937-.76-1.263-1.344-.312-.584-.468-1.263-.468-2.036s.156-1.439.468-1.996c.326-.57.747-.998 1.263-1.283.516-.299 1.072-.448 1.67-.448s1.154.149 1.67.448c.516.299.93.733 1.242 1.303zm9.342-3.279c.57-.326 1.242-.489 2.016-.489v2.403h-.591c-.911 0-1.603.231-2.077.692-.463.462-.692 1.263-.692 2.403v5.905h-2.321v-11.22h2.321v1.629a3.593 3.593 0 0 1 1.344-1.324zm3.865 2.261c-.463.869-.692 1.867-.692 2.993s.23 2.138.692 3.034c.474.882 1.113 1.575 1.914 2.077a5.126 5.126 0 0 0 2.688.733c.868 0 1.635-.176 2.301-.529.678-.353 1.207-.801 1.588-1.344v1.69h2.342V6.749h-2.342v5.417c-.422-.529-.992-.95-1.711-1.263a5.103 5.103 0 0 0-2.159-.489c-.992 0-1.894.244-2.708.733-.801.475-1.44 1.147-1.914 2.016zm8.003 1.018c.326.57.489 1.242.489 2.016s-.163 1.453-.489 2.036c-.313.57-.727 1.005-1.242 1.303a3.345 3.345 0 0 1-3.34 0c-.516-.312-.937-.76-1.263-1.344-.313-.584-.468-1.263-.468-2.036s.156-1.439.468-1.996c.326-.57.746-.998 1.263-1.283a3.27 3.27 0 0 1 1.67-.448 3.28 3.28 0 0 1 1.67.448c.515.299.929.733 1.242 1.303z"/></symbol><symbol id="icon-help" viewBox="0 0 308 32"><path d="M10.667 29.76a2.35 2.35 0 0 1-1.107-.28c-.76-.4-1.227-1.2-1.227-2.053v-1.893c-4.027-.413-6.667-3.373-6.667-7.613v-8c0-4.587 3.08-7.667 7.667-7.667h13.333c4.587 0 7.667 3.08 7.667 7.667v8c0 4.587-3.08 7.667-7.667 7.667h-5.027l-5.68 3.787c-.387.253-.84.387-1.293.387zM9.333 4.24c-3.44 0-5.667 2.227-5.667 5.667v8c0 3.44 2.227 5.667 5.667 5.667.547 0 1 .453 1 1v2.84c0 .173.107.253.173.293s.2.08.347-.013l5.933-3.947c.16-.107.36-.173.56-.173h5.333c3.44 0 5.667-2.227 5.667-5.667v-8c0-3.44-2.227-5.667-5.667-5.667H9.332z"/><path d="M16 16.147c-.547 0-1-.453-1-1v-.28c0-1.547 1.133-2.307 1.56-2.6.493-.333.653-.56.653-.907 0-.667-.547-1.213-1.213-1.213s-1.213.547-1.213 1.213c0 .547-.453 1-1 1s-1-.453-1-1c0-1.773 1.44-3.213 3.213-3.213s3.213 1.44 3.213 3.213c0 1.52-1.12 2.28-1.533 2.56-.52.347-.68.573-.68.947v.28c0 .56-.453 1-1 1zM16 19.467c-.56 0-1-.453-1-1s.453-1 1-1c.547 0 1 .453 1 1s-.44 1-1 1zM62.427 9.693v12.973h-2.128v-5.675h-6.104v5.675h-2.128V9.693h2.128v5.563h6.104V9.693h2.128zm12.041 7.579c0 .386-.025.734-.075 1.045h-7.859c.062.821.367 1.481.915 1.979s1.22.747 2.016.747c1.145 0 1.954-.479 2.427-1.437h2.296a4.655 4.655 0 0 1-1.699 2.333c-.809.597-1.817.896-3.024.896-.983 0-1.867-.218-2.651-.653a4.876 4.876 0 0 1-1.829-1.867c-.436-.809-.653-1.742-.653-2.8s.212-1.985.635-2.781a4.596 4.596 0 0 1 1.811-1.867c.784-.436 1.68-.653 2.688-.653.971 0 1.836.212 2.595.635s1.35 1.02 1.773 1.792c.423.759.635 1.636.635 2.632zm-2.221-.672c-.012-.784-.292-1.412-.84-1.885s-1.226-.709-2.035-.709c-.734 0-1.363.236-1.885.709-.523.46-.834 1.089-.933 1.885h5.693zm6.257-7.747v13.813h-2.128V8.853h2.128zm4.735 5.04c.361-.473.853-.871 1.475-1.195s1.325-.485 2.109-.485c.896 0 1.711.224 2.445.672.747.436 1.332 1.052 1.755 1.848s.635 1.711.635 2.744-.211 1.96-.635 2.781a4.796 4.796 0 0 1-1.755 1.904 4.601 4.601 0 0 1-2.445.672c-.784 0-1.481-.156-2.091-.467a4.8 4.8 0 0 1-1.493-1.195v6.384h-2.128V12.38h2.128v1.512zm6.253 3.584c0-.709-.149-1.319-.448-1.829a2.846 2.846 0 0 0-1.157-1.176 3.002 3.002 0 0 0-1.531-.411c-.535 0-1.045.137-1.531.411a3.14 3.14 0 0 0-1.157 1.195c-.286.523-.429 1.139-.429 1.848s.143 1.332.429 1.867c.299.523.685.921 1.157 1.195a3.07 3.07 0 0 0 1.531.411c.548 0 1.058-.137 1.531-.411a3.076 3.076 0 0 0 1.157-1.232c.299-.535.448-1.157.448-1.867z"/><path fill="none" stroke="#9197b3" style="stroke:var(--color2,#9197b3)" stroke-linejoin="round" stroke-linecap="round" stroke-width="2.667" d="M294.667 21.333 300 16l-5.333-5.333"/></symbol><symbol id="icon-inc" viewBox="0 0 308 32"><path fill="none" stroke-linecap="round" stroke-width="2" d="M14.335 22.481v2.707c0 2.293-2.133 4.147-4.76 4.147s-4.773-1.853-4.773-4.147v-2.707c0 2.293 2.133 3.92 4.773 3.92 2.627 0 4.76-1.64 4.76-3.92z"/><path fill="none" stroke-linejoin="round" stroke-linecap="round" stroke-width="2" d="M14.333 18.813c0 .667-.187 1.28-.507 1.813-.787 1.293-2.4 2.107-4.267 2.107s-3.48-.827-4.267-2.107a3.498 3.498 0 0 1-.507-1.813c0-1.147.533-2.173 1.387-2.92.867-.76 2.053-1.213 3.373-1.213s2.507.467 3.373 1.213c.88.733 1.413 1.773 1.413 2.92z"/><path fill="none" stroke-linejoin="round" stroke-linecap="round" stroke-width="2" d="M14.335 18.813v3.667c0 2.293-2.133 3.92-4.76 3.92s-4.773-1.64-4.773-3.92v-3.667c0-2.293 2.133-4.147 4.773-4.147 1.32 0 2.507.467 3.373 1.213.853.747 1.387 1.787 1.387 2.933zM29.333 14.627v2.747A1.37 1.37 0 0 1 28 18.734h-2.613c-1.44 0-2.76-1.053-2.88-2.493-.08-.84.24-1.627.8-2.173a2.655 2.655 0 0 1 1.92-.8H28a1.369 1.369 0 0 1 1.333 1.36z"/><path fill="none" stroke-linejoin="round" stroke-linecap="round" stroke-width="2" d="M2.667 14v-2.667c0-3.627 2.187-6.16 5.587-6.587.347-.053.707-.08 1.08-.08h12c.347 0 .68.013 1 .067 3.44.4 5.667 2.947 5.667 6.6v1.933h-2.773c-.747 0-1.427.293-1.92.8a2.678 2.678 0 0 0-.8 2.173c.12 1.44 1.44 2.493 2.88 2.493h2.613v1.933c0 4-2.667 6.667-6.667 6.667h-3.333"/><path d="M54.195 9.693v12.973h-2.128V9.693h2.128zm7.796 2.52c.809 0 1.531.168 2.165.504.647.336 1.151.834 1.512 1.493s.541 1.456.541 2.389v6.067H64.1v-5.749c0-.921-.23-1.624-.691-2.109-.46-.498-1.089-.747-1.885-.747s-1.431.249-1.904.747c-.46.485-.691 1.188-.691 2.109v5.749h-2.128V12.381h2.128v1.176a3.53 3.53 0 0 1 1.325-.989 4.341 4.341 0 0 1 1.736-.355zm6.037 5.302c0-1.058.212-1.985.635-2.781.436-.809 1.033-1.431 1.792-1.867s1.63-.653 2.613-.653c1.244 0 2.271.299 3.08.896.821.585 1.375 1.425 1.661 2.52h-2.296c-.187-.51-.485-.908-.896-1.195s-.927-.429-1.549-.429c-.871 0-1.568.311-2.091.933-.51.61-.765 1.468-.765 2.576s.255 1.972.765 2.595c.523.622 1.22.933 2.091.933 1.232 0 2.047-.541 2.445-1.624h2.296c-.299 1.045-.859 1.879-1.68 2.501-.821.61-1.842.915-3.061.915-.983 0-1.854-.218-2.613-.653a4.791 4.791 0 0 1-1.792-1.867c-.423-.809-.635-1.742-.635-2.8zm16.177 5.32c-.971 0-1.848-.218-2.632-.653a4.84 4.84 0 0 1-1.848-1.867c-.448-.809-.672-1.742-.672-2.8 0-1.045.23-1.972.691-2.781s1.089-1.431 1.885-1.867c.797-.436 1.686-.653 2.669-.653s1.873.218 2.669.653c.797.436 1.425 1.058 1.885 1.867s.691 1.736.691 2.781-.236 1.972-.709 2.781a4.96 4.96 0 0 1-1.941 1.885c-.809.436-1.705.653-2.688.653zm0-1.848c.548 0 1.058-.131 1.531-.392.485-.261.877-.653 1.176-1.176s.448-1.157.448-1.904c0-.747-.143-1.375-.429-1.885-.286-.523-.666-.915-1.139-1.176s-.983-.392-1.531-.392a3.12 3.12 0 0 0-1.531.392c-.46.261-.827.653-1.101 1.176-.274.51-.411 1.139-.411 1.885 0 1.108.28 1.966.84 2.576.573.597 1.288.896 2.147.896zm19.706-8.774c.809 0 1.531.168 2.165.504a3.574 3.574 0 0 1 1.512 1.493c.373.66.56 1.456.56 2.389v6.067h-2.109v-5.749c0-.921-.23-1.624-.691-2.109-.461-.498-1.089-.747-1.885-.747s-1.431.249-1.904.747c-.461.485-.691 1.188-.691 2.109v5.749h-2.109v-5.749c0-.921-.23-1.624-.691-2.109-.461-.498-1.089-.747-1.885-.747s-1.431.249-1.904.747c-.461.485-.691 1.188-.691 2.109v5.749H91.46V12.381h2.128v1.176c.348-.423.79-.753 1.325-.989s1.107-.355 1.717-.355c.821 0 1.555.174 2.203.523s1.145.852 1.493 1.512c.311-.622.796-1.114 1.456-1.475a4.252 4.252 0 0 1 2.128-.56zm16.185 5.059c0 .386-.025.734-.075 1.045h-7.859c.062.821.367 1.481.915 1.979s1.22.747 2.016.747c1.145 0 1.954-.479 2.427-1.437h2.296a4.655 4.655 0 0 1-1.699 2.333c-.809.597-1.817.896-3.024.896-.983 0-1.867-.218-2.651-.653a4.883 4.883 0 0 1-1.829-1.867c-.435-.809-.653-1.742-.653-2.8s.212-1.985.635-2.781a4.596 4.596 0 0 1 1.811-1.867c.784-.436 1.68-.653 2.688-.653.971 0 1.836.212 2.595.635s1.35 1.02 1.773 1.792c.423.759.635 1.636.635 2.632zm-2.221-.672c-.012-.784-.292-1.412-.84-1.885s-1.226-.709-2.035-.709c-.734 0-1.363.236-1.885.709-.523.46-.834 1.089-.933 1.885h5.693z"/><path fill="none" stroke="#9197b3" style="stroke:var(--color2,#9197b3)" stroke-linejoin="round" stroke-linecap="round" stroke-width="2.667" d="M294.667 21.333 300 16l-5.333-5.333"/></symbol><symbol id="icon-prod" viewBox="0 0 308 32"><path d="M20 30.333h-8C4.76 30.333 1.667 27.24 1.667 20v-8C1.667 4.76 4.76 1.667 12 1.667h8c7.24 0 10.333 3.093 10.333 10.333v8c0 7.24-3.093 10.333-10.333 10.333zM12 3.667c-6.147 0-8.333 2.187-8.333 8.333v8c0 6.147 2.187 8.333 8.333 8.333h8c6.147 0 8.333-2.187 8.333-8.333v-8c0-6.147-2.187-8.333-8.333-8.333h-8z"/><path d="M16.001 17.44a1 1 0 0 1-.507-.133l-7.067-4.08a.99.99 0 0 1-.36-1.36.99.99 0 0 1 1.36-.36l6.56 3.8 6.52-3.773c.48-.28 1.093-.107 1.36.36s.107 1.093-.36 1.36l-7.013 4.053a1.05 1.05 0 0 1-.493.133z"/><path d="M16 24.693c-.547 0-1-.453-1-1V16.44c0-.547.453-1 1-1s1 .453 1 1v7.253c0 .547-.453 1-1 1z"/><path d="M16 25c-.773 0-1.533-.173-2.147-.507L9.586 22.12c-1.28-.707-2.267-2.4-2.267-3.867v-4.52c0-1.453 1-3.147 2.267-3.867l4.267-2.373c1.227-.68 3.067-.68 4.293 0l4.267 2.373c1.28.707 2.267 2.4 2.267 3.867v4.52c0 1.453-1 3.147-2.267 3.867l-4.267 2.373c-.613.347-1.373.507-2.147.507zm0-16c-.44 0-.867.08-1.173.253l-4.267 2.373c-.653.36-1.24 1.373-1.24 2.107v4.52c0 .747.587 1.747 1.24 2.107l4.267 2.373c.613.347 1.733.347 2.347 0l4.267-2.373c.653-.36 1.24-1.373 1.24-2.107v-4.52c0-.747-.587-1.747-1.24-2.107l-4.267-2.373C16.867 9.08 16.441 9 16.001 9zM61.139 13.557c0 .66-.156 1.282-.467 1.867s-.809 1.064-1.493 1.437c-.684.361-1.562.541-2.632.541h-2.352v5.264h-2.128V9.693h4.48c.996 0 1.836.174 2.52.523.697.336 1.213.796 1.549 1.381a3.76 3.76 0 0 1 .523 1.96zm-4.592 2.11c.809 0 1.412-.18 1.811-.541.398-.373.597-.896.597-1.568 0-1.419-.803-2.128-2.408-2.128h-2.352v4.237h2.352zm8.563-1.792a3.287 3.287 0 0 1 1.232-1.213c.523-.299 1.139-.448 1.848-.448v2.203h-.541c-.834 0-1.469.212-1.904.635-.423.423-.635 1.157-.635 2.203v5.413h-2.128V12.383h2.128v1.493zm9.31 8.96c-.971 0-1.848-.218-2.632-.653a4.84 4.84 0 0 1-1.848-1.867c-.448-.809-.672-1.742-.672-2.8 0-1.045.23-1.972.691-2.781s1.089-1.431 1.885-1.867c.797-.436 1.686-.653 2.669-.653s1.873.218 2.669.653c.797.436 1.425 1.058 1.885 1.867s.691 1.736.691 2.781-.236 1.972-.709 2.781a4.96 4.96 0 0 1-1.941 1.885c-.809.436-1.705.653-2.688.653zm0-1.848c.548 0 1.058-.131 1.531-.392.485-.261.877-.653 1.176-1.176s.448-1.157.448-1.904c0-.747-.143-1.375-.429-1.885-.286-.523-.666-.915-1.139-1.176s-.983-.392-1.531-.392a3.12 3.12 0 0 0-1.531.392c-.46.261-.827.653-1.101 1.176-.274.51-.411 1.139-.411 1.885 0 1.108.28 1.966.84 2.576.573.597 1.288.896 2.147.896zm6.547-3.51c0-1.033.211-1.948.635-2.744a4.734 4.734 0 0 1 4.238-2.52c.672 0 1.331.149 1.979.448.659.286 1.182.672 1.568 1.157V8.853h2.147v13.813h-2.147v-1.549c-.349.498-.834.908-1.456 1.232-.61.324-1.313.485-2.109.485a4.7 4.7 0 0 1-2.464-.672c-.734-.46-1.319-1.095-1.755-1.904-.423-.821-.635-1.748-.635-2.781zm8.418.038c0-.709-.149-1.325-.448-1.848-.286-.523-.666-.921-1.139-1.195s-.983-.411-1.531-.411c-.548 0-1.058.137-1.531.411-.473.261-.859.653-1.157 1.176-.286.51-.429 1.12-.429 1.829s.143 1.332.429 1.867c.299.535.684.946 1.157 1.232.485.274.995.411 1.531.411.547 0 1.058-.137 1.531-.411s.852-.672 1.139-1.195c.299-.535.448-1.157.448-1.867zm14.07-5.134v10.285h-2.128v-1.213a3.517 3.517 0 0 1-1.325 1.008 4.206 4.206 0 0 1-1.717.355c-.809 0-1.537-.168-2.184-.504a3.713 3.713 0 0 1-1.512-1.493c-.361-.66-.541-1.456-.541-2.389v-6.048h2.109v5.731c0 .921.23 1.63.691 2.128.461.485 1.089.728 1.885.728s1.425-.243 1.885-.728c.473-.498.709-1.207.709-2.128v-5.731h2.128zm1.912 5.134c0-1.058.212-1.985.635-2.781.436-.809 1.033-1.431 1.792-1.867s1.63-.653 2.613-.653c1.245 0 2.271.299 3.08.896.821.585 1.375 1.425 1.661 2.52h-2.296c-.187-.51-.485-.908-.896-1.195s-.927-.429-1.549-.429c-.871 0-1.568.311-2.091.933-.51.61-.765 1.468-.765 2.576s.255 1.972.765 2.595c.523.622 1.22.933 2.091.933 1.232 0 2.047-.541 2.445-1.624h2.296c-.299 1.045-.859 1.879-1.68 2.501-.821.61-1.842.915-3.061.915-.983 0-1.854-.218-2.613-.653a4.791 4.791 0 0 1-1.792-1.867c-.423-.809-.635-1.742-.635-2.8zm14.198-3.398v5.693c0 .386.087.666.261.84.187.162.498.243.933.243h1.307v1.773h-1.68c-.958 0-1.693-.224-2.203-.672s-.765-1.176-.765-2.184v-5.693h-1.213v-1.736h1.213V9.824h2.147v2.557h2.501v1.736h-2.501z"/><path fill="none" style="stroke:#9197b3" stroke-linejoin="round" stroke-linecap="round" stroke-width="2.667" d="M294.667 21.333 300 16l-5.333-5.333"/></symbol><symbol id="icon-prom" viewBox="0 0 308 32"><path d="M16 30.334a3.06 3.06 0 0 1-2.213-.92l-2.027-2.027c-.16-.16-.587-.333-.8-.333H8.08a3.13 3.13 0 0 1-3.133-3.133v-2.88c0-.213-.173-.64-.333-.8l-2.027-2.027c-.587-.587-.92-1.373-.92-2.213s.32-1.627.92-2.213l2.027-2.027c.16-.16.333-.587.333-.8v-2.88A3.13 3.13 0 0 1 8.08 4.948h2.88c.213 0 .64-.173.8-.333l2.027-2.027c1.173-1.173 3.253-1.173 4.427 0l2.027 2.027c.16.16.587.333.8.333h2.88a3.13 3.13 0 0 1 3.133 3.133v2.88c0 .213.173.64.333.8l2.027 2.027c.587.587.92 1.373.92 2.213s-.32 1.627-.92 2.213l-2.027 2.027c-.16.16-.333.587-.333.8v2.88a3.13 3.13 0 0 1-3.133 3.133h-2.88c-.213 0-.64.173-.8.333l-2.027 2.027c-.587.6-1.373.92-2.213.92zM6.027 18.827c.533.533.92 1.467.92 2.213v2.88c0 .627.507 1.133 1.133 1.133h2.88c.747 0 1.68.387 2.213.92L15.2 28a1.16 1.16 0 0 0 1.6 0l2.027-2.027c.533-.533 1.467-.92 2.213-.92h2.88c.627 0 1.133-.507 1.133-1.133v-2.88c0-.747.387-1.68.92-2.213L28 16.8c.213-.213.333-.493.333-.8s-.12-.587-.333-.8l-2.027-2.027c-.533-.533-.92-1.467-.92-2.213V8.08c0-.627-.507-1.133-1.133-1.133h-2.88c-.747 0-1.68-.387-2.213-.92L16.8 4a1.16 1.16 0 0 0-1.6 0l-2.027 2.027c-.533.533-1.467.92-2.213.92H8.08c-.627 0-1.133.507-1.133 1.133v2.88c0 .747-.387 1.68-.92 2.213L4 15.2c-.213.213-.333.493-.333.8s.12.587.333.8l2.027 2.027z"/><path d="M20 21.333c-.747 0-1.347-.6-1.347-1.333s.6-1.333 1.333-1.333 1.333.6 1.333 1.333-.587 1.333-1.32 1.333zM12.013 13.333c-.747 0-1.347-.6-1.347-1.333s.6-1.333 1.333-1.333 1.333.6 1.333 1.333-.587 1.333-1.32 1.333zM11.999 20.999a.99.99 0 0 1-.707-.293 1.005 1.005 0 0 1 0-1.413l8-8c.387-.387 1.027-.387 1.413 0s.387 1.027 0 1.413l-8 8c-.2.2-.453.293-.707.293zM61.139 13.557c0 .66-.156 1.282-.467 1.867s-.809 1.064-1.493 1.437c-.684.361-1.562.541-2.632.541h-2.352v5.264h-2.128V9.693h4.48c.996 0 1.836.174 2.52.523.697.336 1.213.796 1.549 1.381a3.76 3.76 0 0 1 .523 1.96zm-4.592 2.11c.809 0 1.412-.18 1.811-.541.398-.373.597-.896.597-1.568 0-1.419-.803-2.128-2.408-2.128h-2.352v4.237h2.352zm8.563-1.792a3.287 3.287 0 0 1 1.232-1.213c.523-.299 1.139-.448 1.848-.448v2.203h-.541c-.834 0-1.469.212-1.904.635-.423.423-.635 1.157-.635 2.203v5.413h-2.128V12.383h2.128v1.493zm9.31 8.96c-.971 0-1.848-.218-2.632-.653a4.84 4.84 0 0 1-1.848-1.867c-.448-.809-.672-1.742-.672-2.8 0-1.045.23-1.972.691-2.781s1.089-1.431 1.885-1.867c.797-.436 1.686-.653 2.669-.653s1.873.218 2.669.653c.797.436 1.425 1.058 1.885 1.867s.691 1.736.691 2.781-.236 1.972-.709 2.781a4.96 4.96 0 0 1-1.941 1.885c-.809.436-1.705.653-2.688.653zm0-1.848c.548 0 1.058-.131 1.531-.392.485-.261.877-.653 1.176-1.176s.448-1.157.448-1.904c0-.747-.143-1.375-.429-1.885-.286-.523-.666-.915-1.139-1.176s-.983-.392-1.531-.392a3.12 3.12 0 0 0-1.531.392c-.46.261-.827.653-1.101 1.176-.274.51-.411 1.139-.411 1.885 0 1.108.28 1.966.84 2.576.573.597 1.288.896 2.147.896zm19.707-8.774c.809 0 1.531.168 2.165.504a3.574 3.574 0 0 1 1.512 1.493c.373.66.56 1.456.56 2.389v6.067h-2.109v-5.749c0-.921-.23-1.624-.691-2.109-.461-.498-1.089-.747-1.885-.747s-1.431.249-1.904.747c-.461.485-.691 1.188-.691 2.109v5.749h-2.109v-5.749c0-.921-.23-1.624-.691-2.109-.461-.498-1.089-.747-1.885-.747s-1.431.249-1.904.747c-.461.485-.691 1.188-.691 2.109v5.749h-2.128V12.381h2.128v1.176c.348-.423.79-.753 1.325-.989s1.107-.355 1.717-.355c.821 0 1.555.174 2.203.523s1.145.852 1.493 1.512c.311-.622.796-1.114 1.456-1.475a4.252 4.252 0 0 1 2.128-.56zm11.219 10.622c-.971 0-1.848-.218-2.632-.653a4.84 4.84 0 0 1-1.848-1.867c-.448-.809-.672-1.742-.672-2.8 0-1.045.23-1.972.691-2.781s1.089-1.431 1.885-1.867c.797-.436 1.686-.653 2.669-.653s1.873.218 2.669.653c.797.436 1.425 1.058 1.885 1.867s.691 1.736.691 2.781-.236 1.972-.709 2.781a4.96 4.96 0 0 1-1.941 1.885c-.809.436-1.705.653-2.688.653zm0-1.848c.548 0 1.058-.131 1.531-.392.485-.261.877-.653 1.176-1.176s.448-1.157.448-1.904c0-.747-.143-1.375-.429-1.885-.286-.523-.666-.915-1.139-1.176s-.983-.392-1.531-.392a3.12 3.12 0 0 0-1.531.392c-.46.261-.827.653-1.101 1.176-.274.51-.411 1.139-.411 1.885 0 1.108.28 1.966.84 2.576.573.597 1.288.896 2.147.896zm9.739-6.87v5.693c0 .386.087.666.261.84.187.162.498.243.933.243h1.307v1.773h-1.68c-.958 0-1.693-.224-2.203-.672s-.765-1.176-.765-2.184v-5.693h-1.213v-1.736h1.213V9.824h2.147v2.557h2.501v1.736h-2.501zm13.702 3.155c0 .386-.025.734-.075 1.045h-7.859c.062.821.367 1.481.915 1.979s1.22.747 2.016.747c1.145 0 1.954-.479 2.427-1.437h2.296a4.655 4.655 0 0 1-1.699 2.333c-.809.597-1.817.896-3.024.896-.983 0-1.867-.218-2.651-.653a4.883 4.883 0 0 1-1.829-1.867c-.435-.809-.653-1.742-.653-2.8s.212-1.985.635-2.781a4.596 4.596 0 0 1 1.811-1.867c.784-.436 1.68-.653 2.688-.653.971 0 1.836.212 2.595.635s1.35 1.02 1.773 1.792c.423.759.635 1.636.635 2.632zm-2.221-.672c-.012-.784-.292-1.412-.84-1.885s-1.226-.709-2.035-.709c-.734 0-1.363.236-1.885.709-.523.46-.834 1.089-.933 1.885h5.693z"/><path fill="none" stroke="#9197b3" style="stroke:var(--color2,#9197b3)" stroke-linejoin="round" stroke-linecap="round" stroke-width="2.667" d="M294.667 21.333 300 16l-5.333-5.333"/></symbol></defs></svg>