<svg aria-hidden="true" style="width:0;height:0;position:absolute;overflow:hidden" xmlns="http://www.w3.org/2000/svg"><defs><symbol id="icon-iconLogo" viewBox="0 0 32 32"><path d="M16 30.173c-.893 0-1.8-.201-2.506-.614L6.16 25.332c-2.986-2.013-3.172-2.32-3.172-5.48v-7.706c0-3.161.173-3.468 3.107-5.454l7.386-4.266c1.401-.813 3.6-.813 5.001 0l7.36 4.24c2.986 2.013 3.173 2.32 3.173 5.48v7.694c0 3.159-.173 3.466-3.107 5.453l-7.387 4.266c-.72.413-1.626.614-2.52.614zm0-26.347c-.56 0-1.107.107-1.493.334L7.173 8.4C5 9.867 5 9.867 5 12.147v7.694c0 2.28 0 2.28 2.226 3.786l7.28 4.2c.787.453 2.213.453 2.999 0l7.334-4.24c2.16-1.467 2.16-1.467 2.16-3.747v-7.694c0-2.28 0-2.28-2.227-3.786l-7.28-4.2c-.387-.227-.934-.334-1.494-.334z"/><path d="M16 21a5.002 5.002 0 0 1-5-5 5.002 5.002 0 0 1 5-5 5.002 5.002 0 0 1 5 5 5.002 5.002 0 0 1-5 5zm0-8a3.004 3.004 0 0 0-3 3 3.004 3.004 0 0 0 3 3 3.004 3.004 0 0 0 3-3 3.004 3.004 0 0 0-3-3z"/></symbol><symbol id="icon-logo" viewBox="0 0 224 32"><path d="M10.877 2.822c2.906 0 5.455.568 7.646 1.704 2.219 1.135 3.922 2.76 5.111 4.873 1.214 2.088 1.822 4.517 1.822 7.29s-.608 5.204-1.822 7.29c-1.189 2.06-2.892 3.657-5.111 4.794-2.193 1.135-4.741 1.704-7.646 1.704H1.21V2.823h9.667zm-.198 22.94c2.906 0 5.15-.792 6.735-2.377s2.377-3.817 2.377-6.696c0-2.88-.792-5.125-2.377-6.735-1.585-1.638-3.829-2.456-6.735-2.456H6.757v18.264h3.922zm17.9-6.34c0-2.219.436-4.186 1.307-5.903.899-1.717 2.1-3.037 3.605-3.962 1.531-.925 3.235-1.387 5.111-1.387 1.637 0 3.063.331 4.279.99 1.24.66 2.231 1.493 2.971 2.496v-3.13h5.586v21.949H45.85v-3.209c-.713 1.03-1.704 1.89-2.971 2.575-1.242.66-2.682.99-4.318.99h-.085a9.375 9.375 0 0 1-5.025-1.45l.039.023c-1.506-.951-2.708-2.286-3.605-4.002-.872-1.743-1.307-3.738-1.307-5.982zm17.274.08c0-1.347-.265-2.496-.792-3.447-.529-.977-1.242-1.717-2.139-2.219a5.546 5.546 0 0 0-2.874-.792h-.019.001c-1.03 0-1.981.251-2.853.753-.872.503-1.585 1.242-2.139 2.219-.529.951-.792 2.088-.792 3.407 0 1.321.264 2.484.792 3.486.555.977 1.268 1.73 2.139 2.258a5.531 5.531 0 0 0 2.853.792h.025a5.808 5.808 0 0 0 2.896-.768l-.029.015a5.807 5.807 0 0 0 2.124-2.189l.015-.03c.527-.977.792-2.139.792-3.486zm19.799 11.331c-1.797 0-3.407-.317-4.834-.951-1.426-.66-2.562-1.545-3.407-2.654a6.695 6.695 0 0 1-1.346-3.666l-.001-.018h5.586c.107.846.515 1.545 1.228 2.1.739.555 1.65.832 2.734.832 1.056 0 1.874-.212 2.456-.634.606-.422.911-.965.911-1.624 0-.713-.37-1.242-1.109-1.585-.713-.37-1.862-.766-3.447-1.189-1.638-.396-2.985-.806-4.041-1.228a7.233 7.233 0 0 1-2.687-1.933l-.008-.009c-.739-.872-1.109-2.046-1.109-3.526 0-1.214.343-2.324 1.03-3.328.713-1.004 1.717-1.797 3.011-2.377 1.321-.581 2.865-.872 4.635-.872 2.615 0 4.701.66 6.26 1.981 1.559 1.295 2.417 3.051 2.575 5.269H68.78c-.079-.872-.45-1.559-1.109-2.06-.634-.529-1.493-.792-2.575-.792-1.004 0-1.783.184-2.338.555-.529.37-.792.884-.792 1.545 0 .739.369 1.307 1.109 1.704.739.37 1.89.753 3.447 1.149 1.585.396 2.892.806 3.922 1.228s1.915 1.082 2.654 1.981c.765.872 1.161 2.034 1.189 3.486 0 1.268-.357 2.403-1.07 3.407-.686 1.004-1.691 1.797-3.011 2.377-1.295.555-2.813.832-4.556.832zM91.599 8.21c1.664 0 3.142.37 4.437 1.109 1.295.713 2.298 1.783 3.011 3.209.739 1.4 1.109 3.09 1.109 5.071v12.876h-5.547V18.352c0-1.743-.436-3.078-1.307-4.002-.872-.951-2.06-1.426-3.566-1.426-1.533 0-2.747.475-3.645 1.426-.872.925-1.307 2.258-1.307 4.002v12.123h-5.547V1.157h5.547V11.26c.713-.951 1.664-1.691 2.853-2.219 1.189-.555 2.508-.832 3.962-.832zm19.775 3.526c.713-1.056 1.691-1.915 2.932-2.575 1.268-.66 2.708-.99 4.318-.99 1.874 0 3.566.462 5.071 1.387 1.533.925 2.734 2.245 3.605 3.962.899 1.691 1.347 3.657 1.347 5.903 0 2.245-.448 4.239-1.347 5.982-.872 1.717-2.072 3.051-3.605 4.002-1.506.951-3.195 1.426-5.071 1.426-1.637 0-3.078-.317-4.318-.951-1.214-.66-2.191-1.506-2.932-2.536v3.13h-5.547V1.158h5.547v10.578zm11.608 7.686c0-1.321-.277-2.456-.832-3.407-.527-.977-1.24-1.717-2.139-2.219a5.559 5.559 0 0 0-2.81-.753h-.045.002a5.546 5.546 0 0 0-2.853.792c-.872.503-1.585 1.242-2.139 2.219-.527.977-.792 2.126-.792 3.447s.265 2.469.792 3.447c.555.977 1.268 1.73 2.139 2.258.818.473 1.8.753 2.847.753h.006c1.03 0 1.981-.264 2.853-.792a5.741 5.741 0 0 0 2.124-2.227l.015-.031c.555-.977.832-2.139.832-3.486zm19.84 11.411c-2.114 0-4.015-.462-5.707-1.387a10.493 10.493 0 0 1-3.975-3.95l-.027-.052c-.951-1.717-1.426-3.698-1.426-5.943s.489-4.226 1.466-5.943a10.408 10.408 0 0 1 4.027-3.935l.054-.027c1.717-.951 3.633-1.426 5.745-1.426 2.114 0 4.029.475 5.745 1.426a10.126 10.126 0 0 1 4.015 3.912l.026.05c1.004 1.717 1.506 3.698 1.506 5.943s-.515 4.226-1.545 5.943a10.602 10.602 0 0 1-4.066 3.974l-.055.027c-1.716.925-3.645 1.387-5.784 1.387zm0-4.834a5.78 5.78 0 0 0 2.811-.713c.899-.503 1.612-1.242 2.139-2.219.529-.977.792-2.165.792-3.566 0-2.088-.555-3.685-1.664-4.794-1.082-1.135-2.417-1.704-4.002-1.704s-2.918.568-4.002 1.704c-1.056 1.109-1.585 2.708-1.585 4.794 0 2.088.515 3.698 1.545 4.834 1.058 1.109 2.377 1.664 3.962 1.664zm14.487-6.577c0-2.219.436-4.186 1.307-5.903.899-1.717 2.1-3.037 3.605-3.962 1.533-.925 3.237-1.387 5.111-1.387 1.638 0 3.064.331 4.279.99 1.242.66 2.232 1.493 2.971 2.496v-3.13h5.586v21.949h-5.586v-3.209c-.713 1.03-1.704 1.89-2.971 2.575-1.24.66-2.68.99-4.318.99h-.083a9.382 9.382 0 0 1-5.027-1.45l.039.023c-1.506-.951-2.706-2.286-3.605-4.002-.872-1.743-1.307-3.738-1.307-5.982zm17.274.08c0-1.347-.264-2.496-.792-3.447-.527-.977-1.24-1.717-2.139-2.219a5.546 5.546 0 0 0-2.874-.792h-.019.001c-1.03 0-1.981.251-2.853.753-.872.503-1.585 1.242-2.139 2.219-.527.951-.792 2.088-.792 3.407 0 1.321.265 2.484.792 3.486.555.977 1.268 1.73 2.139 2.258.899.529 1.85.792 2.853.792a5.83 5.83 0 0 0 2.892-.753 5.792 5.792 0 0 0 2.124-2.189l.015-.03c.529-.977.792-2.139.792-3.486zm16.946-7.568a7.927 7.927 0 0 1 2.738-2.714l.037-.02c1.161-.66 2.482-.99 3.96-.99v5.824h-1.466c-1.742 0-3.063.41-3.96 1.228-.873.818-1.309 2.245-1.309 4.279v10.935h-5.547V8.527h5.547v3.407zm9.442 7.488c0-2.219.436-4.186 1.307-5.903.899-1.717 2.114-3.037 3.645-3.962 1.533-.925 3.237-1.387 5.111-1.387 1.426 0 2.787.317 4.081.951 1.295.608 2.325 1.426 3.09 2.456V1.157h5.626v29.318h-5.626v-3.249c-.686 1.082-1.65 1.955-2.892 2.615-1.24.66-2.68.99-4.318.99h-.083a9.382 9.382 0 0 1-5.027-1.45l.039.023c-1.531-.951-2.746-2.286-3.645-4.002-.872-1.743-1.307-3.738-1.307-5.982zm17.274.08c0-1.347-.264-2.496-.792-3.447-.527-.977-1.24-1.717-2.139-2.219a5.546 5.546 0 0 0-2.874-.792h-.019.001c-1.03 0-1.981.251-2.853.753-.872.503-1.585 1.242-2.139 2.219-.527.951-.792 2.088-.792 3.407 0 1.321.265 2.484.792 3.486.555.977 1.268 1.73 2.139 2.258.899.529 1.85.792 2.853.792a5.83 5.83 0 0 0 2.892-.753 5.792 5.792 0 0 0 2.124-2.189l.015-.03c.529-.977.792-2.139.792-3.486z"/></symbol><symbol id="icon-v01" viewBox="0 0 60 32"><path fill="#838383" style="fill:var(--color1,#838383)" d="m10.24 24.818 5.547-15.964h4.302l-7.467 19.591H7.786L.355 8.854h4.338l5.547 15.964zm14.194 3.875-.062.001a2.504 2.504 0 0 1-1.787-.747 2.5 2.5 0 0 1-.746-1.852v.003c0-.736.249-1.351.747-1.849s1.113-.747 1.849-.747c.711 0 1.316.249 1.813.747s.747 1.113.747 1.849-.249 1.351-.747 1.849-1.102.747-1.813.747zm6.051-13.546c0-4.1.686-7.3 2.062-9.6 1.397-2.322 3.79-3.484 7.182-3.484 3.388 0 5.771 1.163 7.147 3.484 1.397 2.3 2.098 5.5 2.098 9.6 0 4.149-.7 7.396-2.098 9.742-1.376 2.322-3.758 3.484-7.147 3.484-3.392 0-5.785-1.163-7.182-3.484-1.376-2.347-2.062-5.593-2.062-9.742zm14.507 0c0-1.92-.132-3.545-.391-4.871-.238-1.326-.736-2.407-1.493-3.236-.757-.853-1.884-1.28-3.378-1.28s-2.62.427-3.378 1.28c-.757.828-1.269 1.909-1.529 3.236-.238 1.326-.356 2.951-.356 4.871 0 1.991.117 3.662.356 5.013.235 1.351.736 2.443 1.493 3.271.782.828 1.92 1.244 3.413 1.244s2.62-.416 3.378-1.244c.782-.828 1.291-1.92 1.529-3.271.235-1.351.356-3.022.356-5.013zm7.381-8.925V2.524h7.396v25.92H55.68V6.222h-3.307z"/></symbol></defs></svg>