<svg aria-hidden="true" style="position: absolute; width: 0; height: 0; overflow: hidden;" version="1.1" xmlns="http://www.w3.org/2000/svg" xmlns:xlink="http://www.w3.org/1999/xlink">
<defs>
<symbol id="icon-cust" viewBox="0 0 308 32">
<path  d="M20 30.333h-8c-7.24 0-10.333-3.093-10.333-10.333v-8c0-7.24 3.093-10.333 10.333-10.333h8c7.24 0 10.333 3.093 10.333 10.333v8c0 7.24-3.093 10.333-10.333 10.333zM12 3.667c-6.147 0-8.333 2.187-8.333 8.333v8c0 6.147 2.187 8.333 8.333 8.333h8c6.147 0 8.333-2.187 8.333-8.333v-8c0-6.147-2.187-8.333-8.333-8.333h-8z"></path>
<path  d="M20.001 30.333h-8c-1.76 0-3.227-0.173-4.467-0.547-0.453-0.133-0.747-0.573-0.72-1.040 0.333-3.987 4.373-7.12 9.187-7.12s8.84 3.12 9.187 7.12c0.040 0.48-0.253 0.907-0.72 1.040-1.24 0.373-2.707 0.547-4.467 0.547zM8.961 28.080c0.88 0.173 1.88 0.253 3.040 0.253h8c1.16 0 2.16-0.080 3.040-0.253-0.707-2.56-3.627-4.453-7.040-4.453s-6.333 1.893-7.040 4.453z"></path>
<path fill="none"    d="M20 2.667h-8c-6.667 0-9.333 2.667-9.333 9.333v8c0 5.040 1.52 7.8 5.147 8.827 0.293-3.467 3.853-6.2 8.187-6.2s7.893 2.733 8.187 6.2c3.627-1.027 5.147-3.787 5.147-8.827v-8c0-6.667-2.667-9.333-9.333-9.333zM16 18.893c-2.64 0-4.773-2.147-4.773-4.787s2.133-4.773 4.773-4.773c2.64 0 4.773 2.133 4.773 4.773s-2.133 4.787-4.773 4.787z"></path>
<path  d="M16 19.893c-3.187 0-5.773-2.6-5.773-5.787s2.587-5.773 5.773-5.773c3.187 0 5.773 2.587 5.773 5.773s-2.587 5.787-5.773 5.787zM16 10.333c-2.080 0-3.773 1.693-3.773 3.773 0 2.093 1.693 3.787 3.773 3.787s3.773-1.693 3.773-3.787c0-2.080-1.693-3.773-3.773-3.773z"></path>
<path d="M51.357 16.152c0-1.269 0.292-2.408 0.877-3.416 0.597-1.008 1.4-1.792 2.408-2.352 1.020-0.572 2.134-0.859 3.341-0.859 1.381 0 2.607 0.342 3.677 1.027 1.083 0.672 1.867 1.63 2.352 2.875h-2.557c-0.336-0.684-0.803-1.195-1.4-1.531s-1.288-0.504-2.072-0.504c-0.859 0-1.624 0.193-2.296 0.579s-1.201 0.94-1.587 1.661c-0.373 0.722-0.56 1.562-0.56 2.52s0.187 1.798 0.56 2.52c0.386 0.722 0.915 1.282 1.587 1.68 0.672 0.386 1.437 0.579 2.296 0.579 0.784 0 1.475-0.168 2.072-0.504s1.064-0.846 1.4-1.531h2.557c-0.485 1.244-1.269 2.203-2.352 2.875-1.070 0.672-2.296 1.008-3.677 1.008-1.22 0-2.333-0.28-3.341-0.84-1.008-0.572-1.811-1.363-2.408-2.371-0.585-1.008-0.877-2.147-0.877-3.416zM75.632 12.381v10.285h-2.128v-1.213c-0.336 0.423-0.778 0.759-1.325 1.008-0.535 0.236-1.107 0.355-1.717 0.355-0.809 0-1.537-0.168-2.184-0.504-0.635-0.336-1.139-0.834-1.512-1.493-0.361-0.66-0.541-1.456-0.541-2.389v-6.048h2.109v5.731c0 0.921 0.23 1.63 0.691 2.128 0.461 0.485 1.089 0.728 1.885 0.728s1.425-0.243 1.885-0.728c0.473-0.498 0.709-1.207 0.709-2.128v-5.731h2.128zM81.987 22.835c-0.809 0-1.537-0.143-2.184-0.429-0.635-0.299-1.139-0.697-1.512-1.195-0.373-0.51-0.572-1.076-0.597-1.699h2.203c0.037 0.436 0.243 0.803 0.616 1.101 0.386 0.286 0.865 0.429 1.437 0.429 0.597 0 1.058-0.112 1.381-0.336 0.336-0.236 0.504-0.535 0.504-0.896 0-0.386-0.187-0.672-0.56-0.859-0.361-0.187-0.939-0.392-1.736-0.616-0.771-0.212-1.4-0.417-1.885-0.616s-0.908-0.504-1.269-0.915c-0.348-0.411-0.523-0.952-0.523-1.624 0-0.548 0.162-1.045 0.485-1.493 0.324-0.46 0.784-0.821 1.381-1.083 0.61-0.261 1.307-0.392 2.091-0.392 1.17 0 2.109 0.299 2.819 0.896 0.722 0.585 1.108 1.388 1.157 2.408h-2.128c-0.037-0.46-0.224-0.828-0.56-1.101s-0.79-0.411-1.363-0.411c-0.56 0-0.989 0.106-1.288 0.317s-0.448 0.492-0.448 0.84c0 0.274 0.1 0.504 0.299 0.691s0.442 0.336 0.728 0.448c0.286 0.1 0.709 0.23 1.269 0.392 0.747 0.199 1.357 0.404 1.829 0.616 0.485 0.199 0.902 0.498 1.251 0.896s0.529 0.927 0.541 1.587c0 0.585-0.162 1.108-0.485 1.568s-0.784 0.821-1.381 1.083c-0.585 0.261-1.275 0.392-2.072 0.392zM90.521 14.117v5.693c0 0.386 0.087 0.666 0.261 0.84 0.187 0.162 0.498 0.243 0.933 0.243h1.307v1.773h-1.68c-0.958 0-1.692-0.224-2.203-0.672s-0.765-1.176-0.765-2.184v-5.693h-1.213v-1.736h1.213v-2.557h2.147v2.557h2.501v1.736h-2.501zM99.258 22.835c-0.971 0-1.848-0.218-2.632-0.653-0.784-0.448-1.4-1.070-1.848-1.867-0.448-0.809-0.672-1.742-0.672-2.8 0-1.045 0.23-1.972 0.691-2.781s1.089-1.431 1.885-1.867c0.797-0.436 1.686-0.653 2.669-0.653s1.873 0.218 2.669 0.653c0.797 0.436 1.425 1.058 1.885 1.867s0.691 1.736 0.691 2.781-0.236 1.972-0.709 2.781c-0.473 0.809-1.12 1.437-1.941 1.885-0.809 0.436-1.705 0.653-2.688 0.653zM99.258 20.987c0.548 0 1.058-0.131 1.531-0.392 0.485-0.261 0.877-0.653 1.176-1.176s0.448-1.157 0.448-1.904c0-0.747-0.143-1.375-0.429-1.885-0.286-0.523-0.666-0.915-1.139-1.176s-0.983-0.392-1.531-0.392c-0.547 0-1.058 0.131-1.531 0.392-0.46 0.261-0.827 0.653-1.101 1.176-0.274 0.51-0.411 1.139-0.411 1.885 0 1.108 0.28 1.966 0.84 2.576 0.573 0.597 1.288 0.896 2.147 0.896zM118.964 12.213c0.809 0 1.531 0.168 2.165 0.504 0.647 0.336 1.151 0.834 1.512 1.493 0.373 0.66 0.56 1.456 0.56 2.389v6.067h-2.109v-5.749c0-0.921-0.23-1.624-0.691-2.109-0.461-0.498-1.089-0.747-1.885-0.747s-1.431 0.249-1.904 0.747c-0.461 0.485-0.691 1.188-0.691 2.109v5.749h-2.109v-5.749c0-0.921-0.23-1.624-0.691-2.109-0.461-0.498-1.089-0.747-1.885-0.747s-1.431 0.249-1.904 0.747c-0.461 0.485-0.691 1.188-0.691 2.109v5.749h-2.128v-10.285h2.128v1.176c0.348-0.423 0.79-0.753 1.325-0.989s1.107-0.355 1.717-0.355c0.821 0 1.555 0.174 2.203 0.523s1.145 0.852 1.493 1.512c0.311-0.622 0.796-1.114 1.456-1.475 0.659-0.373 1.369-0.56 2.128-0.56zM135.149 17.272c0 0.386-0.025 0.734-0.075 1.045h-7.859c0.062 0.821 0.367 1.481 0.915 1.979s1.22 0.747 2.016 0.747c1.145 0 1.954-0.479 2.427-1.437h2.296c-0.311 0.946-0.877 1.724-1.699 2.333-0.809 0.597-1.817 0.896-3.024 0.896-0.983 0-1.867-0.218-2.651-0.653-0.771-0.448-1.381-1.070-1.829-1.867-0.435-0.809-0.653-1.742-0.653-2.8s0.212-1.985 0.635-2.781c0.436-0.809 1.039-1.431 1.811-1.867 0.784-0.436 1.68-0.653 2.688-0.653 0.971 0 1.836 0.212 2.595 0.635s1.351 1.020 1.773 1.792c0.423 0.759 0.635 1.636 0.635 2.632zM132.928 16.6c-0.012-0.784-0.292-1.412-0.84-1.885s-1.226-0.709-2.035-0.709c-0.734 0-1.363 0.236-1.885 0.709-0.523 0.46-0.834 1.089-0.933 1.885h5.693zM139.185 13.875c0.311-0.523 0.721-0.927 1.232-1.213 0.523-0.299 1.139-0.448 1.848-0.448v2.203h-0.541c-0.835 0-1.469 0.212-1.904 0.635-0.424 0.423-0.635 1.157-0.635 2.203v5.413h-2.128v-10.285h2.128v1.493zM147.768 22.835c-0.809 0-1.537-0.143-2.184-0.429-0.635-0.299-1.139-0.697-1.512-1.195-0.373-0.51-0.573-1.076-0.597-1.699h2.203c0.037 0.436 0.243 0.803 0.616 1.101 0.385 0.286 0.864 0.429 1.437 0.429 0.597 0 1.057-0.112 1.381-0.336 0.336-0.236 0.504-0.535 0.504-0.896 0-0.386-0.187-0.672-0.56-0.859-0.361-0.187-0.94-0.392-1.736-0.616-0.772-0.212-1.4-0.417-1.885-0.616s-0.909-0.504-1.269-0.915c-0.349-0.411-0.523-0.952-0.523-1.624 0-0.548 0.161-1.045 0.485-1.493 0.323-0.46 0.784-0.821 1.381-1.083 0.609-0.261 1.307-0.392 2.091-0.392 1.169 0 2.109 0.299 2.819 0.896 0.721 0.585 1.107 1.388 1.157 2.408h-2.128c-0.037-0.46-0.224-0.828-0.56-1.101s-0.791-0.411-1.363-0.411c-0.56 0-0.989 0.106-1.288 0.317s-0.448 0.492-0.448 0.84c0 0.274 0.099 0.504 0.299 0.691 0.199 0.187 0.441 0.336 0.728 0.448 0.285 0.1 0.709 0.23 1.269 0.392 0.747 0.199 1.356 0.404 1.829 0.616 0.485 0.199 0.901 0.498 1.251 0.896 0.348 0.398 0.528 0.927 0.541 1.587 0 0.585-0.163 1.108-0.485 1.568-0.324 0.46-0.784 0.821-1.381 1.083-0.585 0.261-1.276 0.392-2.072 0.392z"></path>
<path fill="none" stroke="#9197b3" style="stroke: var(--color2, #9197b3)" stroke-linejoin="round" stroke-linecap="round" stroke-miterlimit="4" stroke-width="2.6667" d="M294.667 21.333l5.333-5.333-5.333-5.333"></path>
</symbol>
<symbol id="icon-dash" viewBox="0 0 166 32">
<path d="M3.047 3.047c1.941-1.941 4.846-2.683 8.59-2.683h8.727c3.744 0 6.649 0.742 8.59 2.683s2.683 4.846 2.683 8.59v8.727c0 3.744-0.742 6.649-2.683 8.59s-4.846 2.683-8.59 2.683h-8.727c-3.744 0-6.649-0.742-8.59-2.683s-2.683-4.846-2.683-8.59v-8.727c0-3.744 0.742-6.649 2.683-8.59zM4.59 4.59c-1.332 1.332-2.044 3.518-2.044 7.047v8.727c0 3.529 0.712 5.715 2.044 7.047s3.518 2.044 7.047 2.044h8.727c3.529 0 5.715-0.712 7.047-2.044s2.044-3.518 2.044-7.047v-8.727c0-3.529-0.712-5.715-2.044-7.047s-3.518-2.044-7.047-2.044h-8.727c-3.529 0-5.715 0.712-7.047 2.044zM21.456 10.563v0c1.924 1.912 1.931 5.061-0.004 7.009-1.348 1.347-3.277 1.764-4.98 1.228-0.387-0.122-0.81-0.019-1.097 0.268l-1.621 1.615-0.469-0.475c-0.424-0.428-1.114-0.433-1.543-0.009s-0.433 1.114-0.009 1.543l0.475 0.481-0.609 0.607-0.011 0.007c-0.022 0.013-0.055 0.028-0.097 0.042s-0.082 0.022-0.114 0.026c-0.021 0.002-0.032 0.002-0.036 0.002l-1.766-0.235c0 0-0 0-0 0-0.004-0.001-0.063-0.016-0.139-0.093s-0.104-0.151-0.11-0.178l-0.23-1.728-0.001-0.006c0-0.004 0.001-0.011 0.002-0.020 0.004-0.029 0.012-0.070 0.028-0.117s0.035-0.088 0.053-0.121c0.011-0.019 0.018-0.030 0.022-0.035l3.732-3.732c0.286-0.286 0.39-0.706 0.271-1.092-0.527-1.713-0.117-3.643 1.227-4.988 1.929-1.929 5.080-1.932 7.027 0.002zM22.994 9.015c-2.795-2.778-7.324-2.781-10.108 0.002-1.772 1.772-2.41 4.242-1.937 6.519l-3.334 3.335c-0.267 0.282-0.45 0.637-0.558 0.961-0.107 0.317-0.183 0.724-0.122 1.135l0.232 1.737 0.003 0.022c0.084 0.544 0.362 1.026 0.711 1.381 0.348 0.354 0.839 0.654 1.419 0.728l1.735 0.231c0.401 0.057 0.804-0.006 1.136-0.115 0.326-0.107 0.697-0.295 0.986-0.594l3.317-3.304c2.285 0.485 4.755-0.171 6.523-1.94l0.002-0.002c2.777-2.794 2.783-7.325-0.005-10.095zM16.574 14.109c0 0.803 0.651 1.455 1.455 1.455h0.013c0.803 0 1.455-0.651 1.455-1.455s-0.651-1.455-1.455-1.455h-0.013c-0.803 0-1.455 0.651-1.455 1.455zM63.919 8.541c-1.127-0.584-2.444-0.876-3.951-0.876h-4.623v14.153h4.623c1.507 0 2.824-0.278 3.951-0.835 1.14-0.57 2.016-1.385 2.627-2.444 0.624-1.059 0.937-2.308 0.937-3.747s-0.312-2.695-0.937-3.767c-0.611-1.086-1.487-1.914-2.627-2.484zM63.776 18.58c-0.882 0.896-2.152 1.344-3.808 1.344h-2.301v-10.365h2.301c1.656 0 2.926 0.462 3.808 1.385s1.324 2.206 1.324 3.849c0 1.629-0.441 2.892-1.324 3.788zM69.498 13.164c-0.462 0.869-0.692 1.867-0.692 2.993s0.231 2.138 0.692 3.034c0.475 0.882 1.113 1.575 1.914 2.077 0.801 0.489 1.683 0.733 2.647 0.733 0.869 0 1.643-0.176 2.321-0.529s1.215-0.794 1.609-1.324v1.67h2.342v-11.22h-2.342v1.629c-0.394-0.516-0.923-0.944-1.588-1.283-0.652-0.353-1.419-0.529-2.301-0.529-0.977 0-1.873 0.244-2.688 0.733-0.801 0.475-1.439 1.147-1.914 2.016zM77.501 14.182c0.326 0.57 0.489 1.242 0.489 2.016s-0.163 1.453-0.489 2.036c-0.312 0.57-0.726 1.005-1.242 1.303s-1.073 0.448-1.67 0.448c-0.584 0-1.14-0.149-1.67-0.448-0.516-0.312-0.937-0.76-1.263-1.344-0.312-0.584-0.468-1.263-0.468-2.036s0.156-1.439 0.468-1.996c0.326-0.57 0.747-0.998 1.263-1.283 0.516-0.299 1.072-0.448 1.67-0.448s1.154 0.149 1.67 0.448c0.516 0.299 0.93 0.733 1.242 1.303zM84.867 21.533c-0.692-0.326-1.242-0.76-1.649-1.303-0.407-0.557-0.625-1.174-0.652-1.853h2.403c0.041 0.475 0.265 0.876 0.672 1.201 0.421 0.312 0.943 0.468 1.568 0.468 0.652 0 1.154-0.122 1.507-0.367 0.367-0.258 0.55-0.584 0.55-0.977 0-0.421-0.204-0.733-0.611-0.937-0.394-0.204-1.025-0.428-1.894-0.672-0.842-0.231-1.527-0.455-2.057-0.672s-0.991-0.55-1.385-0.998c-0.38-0.448-0.57-1.039-0.57-1.772 0-0.597 0.176-1.14 0.529-1.629 0.353-0.502 0.855-0.896 1.507-1.181 0.665-0.285 1.425-0.428 2.281-0.428 1.276 0 2.301 0.326 3.075 0.977 0.787 0.638 1.208 1.514 1.263 2.627h-2.321c-0.041-0.502-0.244-0.903-0.611-1.201s-0.862-0.448-1.487-0.448c-0.611 0-1.079 0.115-1.405 0.346s-0.489 0.536-0.489 0.916c0 0.299 0.109 0.55 0.326 0.753s0.482 0.367 0.794 0.489c0.312 0.109 0.774 0.251 1.385 0.428 0.815 0.217 1.48 0.441 1.996 0.672 0.529 0.217 0.984 0.543 1.364 0.977s0.577 1.011 0.591 1.731c0 0.638-0.177 1.208-0.529 1.711s-0.855 0.896-1.507 1.181c-0.638 0.285-1.392 0.428-2.26 0.428-0.882 0-1.677-0.156-2.383-0.468zM101.935 10.964c0.679 0.367 1.208 0.91 1.588 1.629 0.394 0.72 0.591 1.588 0.591 2.607v6.618h-2.301v-6.272c0-1.005-0.251-1.772-0.753-2.301-0.502-0.543-1.188-0.815-2.057-0.815s-1.561 0.272-2.077 0.815c-0.502 0.529-0.753 1.296-0.753 2.301v6.272h-2.321v-15.069h2.321v5.152c0.394-0.475 0.889-0.842 1.487-1.1 0.611-0.258 1.276-0.387 1.996-0.387 0.855 0 1.615 0.183 2.281 0.55zM110.802 10.944c-0.679 0.339-1.215 0.781-1.609 1.324v-5.519h-2.321v15.069h2.321v-1.629c0.394 0.529 0.923 0.964 1.588 1.303 0.679 0.339 1.453 0.509 2.321 0.509 0.977 0 1.867-0.244 2.668-0.733 0.815-0.502 1.453-1.195 1.914-2.077 0.462-0.896 0.692-1.907 0.692-3.034s-0.231-2.125-0.692-2.993c-0.462-0.882-1.093-1.561-1.894-2.036s-1.697-0.713-2.688-0.713c-0.842 0-1.609 0.176-2.301 0.529zM115.526 14.161c0.326 0.557 0.489 1.222 0.489 1.996s-0.163 1.453-0.489 2.036c-0.312 0.584-0.733 1.032-1.263 1.344-0.516 0.299-1.073 0.448-1.67 0.448-0.584 0-1.14-0.149-1.67-0.448-0.516-0.299-0.937-0.733-1.263-1.303-0.312-0.584-0.468-1.263-0.468-2.036s0.156-1.446 0.468-2.016c0.326-0.57 0.747-1.005 1.263-1.303 0.529-0.299 1.086-0.448 1.67-0.448 0.597 0 1.154 0.149 1.67 0.448 0.529 0.285 0.95 0.713 1.263 1.283zM122.465 21.289c0.855 0.475 1.812 0.713 2.871 0.713 1.072 0 2.050-0.238 2.932-0.713 0.896-0.489 1.602-1.174 2.118-2.057s0.774-1.894 0.774-3.034-0.251-2.152-0.753-3.034c-0.502-0.882-1.188-1.561-2.057-2.036s-1.84-0.713-2.912-0.713c-1.073 0-2.043 0.238-2.912 0.713s-1.554 1.154-2.057 2.036c-0.502 0.882-0.753 1.894-0.753 3.034 0 1.154 0.244 2.172 0.733 3.055 0.489 0.869 1.161 1.548 2.016 2.036zM127.006 19.558c-0.516 0.285-1.073 0.428-1.67 0.428-0.937 0-1.717-0.326-2.342-0.977-0.611-0.665-0.916-1.602-0.916-2.81 0-0.815 0.149-1.5 0.448-2.057 0.299-0.57 0.699-0.998 1.201-1.283 0.516-0.285 1.072-0.428 1.67-0.428s1.154 0.143 1.67 0.428c0.516 0.285 0.93 0.713 1.242 1.283 0.312 0.557 0.468 1.242 0.468 2.057s-0.163 1.507-0.489 2.077c-0.326 0.57-0.753 0.998-1.283 1.283zM133.17 13.164c-0.462 0.869-0.692 1.867-0.692 2.993s0.231 2.138 0.692 3.034c0.475 0.882 1.113 1.575 1.914 2.077 0.801 0.489 1.683 0.733 2.647 0.733 0.869 0 1.643-0.176 2.321-0.529s1.215-0.794 1.609-1.324v1.67h2.342v-11.22h-2.342v1.629c-0.394-0.516-0.923-0.944-1.588-1.283-0.652-0.353-1.419-0.529-2.301-0.529-0.977 0-1.873 0.244-2.688 0.733-0.801 0.475-1.439 1.147-1.914 2.016zM141.173 14.182c0.326 0.57 0.489 1.242 0.489 2.016s-0.163 1.453-0.489 2.036c-0.312 0.57-0.726 1.005-1.242 1.303s-1.072 0.448-1.67 0.448c-0.584 0-1.14-0.149-1.67-0.448-0.516-0.312-0.937-0.76-1.263-1.344-0.312-0.584-0.468-1.263-0.468-2.036s0.156-1.439 0.468-1.996c0.326-0.57 0.747-0.998 1.263-1.283 0.516-0.299 1.072-0.448 1.67-0.448s1.154 0.149 1.67 0.448c0.516 0.299 0.93 0.733 1.242 1.303zM150.515 10.903c0.57-0.326 1.242-0.489 2.016-0.489v2.403h-0.591c-0.911 0-1.603 0.231-2.077 0.692-0.463 0.462-0.692 1.263-0.692 2.403v5.905h-2.321v-11.22h2.321v1.629c0.339-0.57 0.787-1.011 1.344-1.324zM154.38 13.164c-0.463 0.869-0.692 1.867-0.692 2.993s0.23 2.138 0.692 3.034c0.474 0.882 1.113 1.575 1.914 2.077 0.815 0.489 1.711 0.733 2.688 0.733 0.868 0 1.635-0.176 2.301-0.529 0.678-0.353 1.207-0.801 1.588-1.344v1.69h2.342v-15.069h-2.342v5.417c-0.422-0.529-0.992-0.95-1.711-1.263-0.707-0.326-1.425-0.489-2.159-0.489-0.992 0-1.894 0.244-2.708 0.733-0.801 0.475-1.44 1.147-1.914 2.016zM162.383 14.182c0.326 0.57 0.489 1.242 0.489 2.016s-0.163 1.453-0.489 2.036c-0.313 0.57-0.727 1.005-1.242 1.303-0.516 0.299-1.073 0.448-1.67 0.448-0.585 0-1.14-0.149-1.67-0.448-0.516-0.312-0.937-0.76-1.263-1.344-0.313-0.584-0.468-1.263-0.468-2.036s0.156-1.439 0.468-1.996c0.326-0.57 0.746-0.998 1.263-1.283 0.515-0.299 1.072-0.448 1.67-0.448 0.596 0 1.153 0.149 1.67 0.448 0.515 0.299 0.929 0.733 1.242 1.303z"></path>
</symbol>
<symbol id="icon-help" viewBox="0 0 308 32">
<path d="M10.667 29.76c-0.373 0-0.76-0.093-1.107-0.28-0.76-0.4-1.227-1.2-1.227-2.053v-1.893c-4.027-0.413-6.667-3.373-6.667-7.613v-8c0-4.587 3.080-7.667 7.667-7.667h13.333c4.587 0 7.667 3.080 7.667 7.667v8c0 4.587-3.080 7.667-7.667 7.667h-5.027l-5.68 3.787c-0.387 0.253-0.84 0.387-1.293 0.387zM9.333 4.24c-3.44 0-5.667 2.227-5.667 5.667v8c0 3.44 2.227 5.667 5.667 5.667 0.547 0 1 0.453 1 1v2.84c0 0.173 0.107 0.253 0.173 0.293s0.2 0.080 0.347-0.013l5.933-3.947c0.16-0.107 0.36-0.173 0.56-0.173h5.333c3.44 0 5.667-2.227 5.667-5.667v-8c0-3.44-2.227-5.667-5.667-5.667h-13.347z"></path>
<path d="M16 16.147c-0.547 0-1-0.453-1-1v-0.28c0-1.547 1.133-2.307 1.56-2.6 0.493-0.333 0.653-0.56 0.653-0.907 0-0.667-0.547-1.213-1.213-1.213s-1.213 0.547-1.213 1.213c0 0.547-0.453 1-1 1s-1-0.453-1-1c0-1.773 1.44-3.213 3.213-3.213s3.213 1.44 3.213 3.213c0 1.52-1.12 2.28-1.533 2.56-0.52 0.347-0.68 0.573-0.68 0.947v0.28c0 0.56-0.453 1-1 1z"></path>
<path d="M16 19.467c-0.56 0-1-0.453-1-1s0.453-1 1-1c0.547 0 1 0.453 1 1s-0.44 1-1 1z"></path>
<path d="M62.427 9.693v12.973h-2.128v-5.675h-6.104v5.675h-2.128v-12.973h2.128v5.563h6.104v-5.563h2.128zM74.468 17.272c0 0.386-0.025 0.734-0.075 1.045h-7.859c0.062 0.821 0.367 1.481 0.915 1.979s1.22 0.747 2.016 0.747c1.145 0 1.954-0.479 2.427-1.437h2.296c-0.311 0.946-0.877 1.724-1.699 2.333-0.809 0.597-1.817 0.896-3.024 0.896-0.983 0-1.867-0.218-2.651-0.653-0.772-0.448-1.381-1.070-1.829-1.867-0.436-0.809-0.653-1.742-0.653-2.8s0.212-1.985 0.635-2.781c0.436-0.809 1.039-1.431 1.811-1.867 0.784-0.436 1.68-0.653 2.688-0.653 0.971 0 1.836 0.212 2.595 0.635s1.35 1.020 1.773 1.792c0.423 0.759 0.635 1.636 0.635 2.632zM72.247 16.6c-0.012-0.784-0.292-1.412-0.84-1.885s-1.226-0.709-2.035-0.709c-0.734 0-1.363 0.236-1.885 0.709-0.523 0.46-0.834 1.089-0.933 1.885h5.693zM78.504 8.853v13.813h-2.128v-13.813h2.128zM83.239 13.893c0.361-0.473 0.853-0.871 1.475-1.195s1.325-0.485 2.109-0.485c0.896 0 1.711 0.224 2.445 0.672 0.747 0.436 1.332 1.052 1.755 1.848s0.635 1.711 0.635 2.744-0.211 1.96-0.635 2.781c-0.423 0.809-1.008 1.444-1.755 1.904-0.734 0.448-1.549 0.672-2.445 0.672-0.784 0-1.481-0.156-2.091-0.467-0.61-0.324-1.107-0.722-1.493-1.195v6.384h-2.128v-15.176h2.128v1.512zM89.492 17.477c0-0.709-0.149-1.319-0.448-1.829-0.286-0.523-0.672-0.915-1.157-1.176-0.473-0.274-0.983-0.411-1.531-0.411-0.535 0-1.045 0.137-1.531 0.411-0.473 0.274-0.859 0.672-1.157 1.195-0.286 0.523-0.429 1.139-0.429 1.848s0.143 1.332 0.429 1.867c0.299 0.523 0.685 0.921 1.157 1.195 0.485 0.274 0.996 0.411 1.531 0.411 0.548 0 1.058-0.137 1.531-0.411 0.485-0.286 0.871-0.697 1.157-1.232 0.299-0.535 0.448-1.157 0.448-1.867z"></path>
<path fill="none" stroke="#9197b3" style="stroke: var(--color2, #9197b3)" stroke-linejoin="round" stroke-linecap="round" stroke-miterlimit="4" stroke-width="2.6667" d="M294.667 21.333l5.333-5.333-5.333-5.333"></path>
</symbol>
<symbol id="icon-inc" viewBox="0 0 308 32">
<path fill="none"    stroke-linecap="round" stroke-miterlimit="4" stroke-width="2" d="M14.335 22.481v2.707c0 2.293-2.133 4.147-4.76 4.147s-4.773-1.853-4.773-4.147v-2.707c0 2.293 2.133 3.92 4.773 3.92 2.627 0 4.76-1.64 4.76-3.92z"></path>
<path fill="none"   stroke-linejoin="round" stroke-linecap="round" stroke-miterlimit="4" stroke-width="2" d="M14.333 18.813c0 0.667-0.187 1.28-0.507 1.813-0.787 1.293-2.4 2.107-4.267 2.107s-3.48-0.827-4.267-2.107c-0.32-0.533-0.507-1.147-0.507-1.813 0-1.147 0.533-2.173 1.387-2.92 0.867-0.76 2.053-1.213 3.373-1.213s2.507 0.467 3.373 1.213c0.88 0.733 1.413 1.773 1.413 2.92z"></path>
<path fill="none"   stroke-linejoin="round" stroke-linecap="round" stroke-miterlimit="4" stroke-width="2" d="M14.335 18.813v3.667c0 2.293-2.133 3.92-4.76 3.92s-4.773-1.64-4.773-3.92v-3.667c0-2.293 2.133-4.147 4.773-4.147 1.32 0 2.507 0.467 3.373 1.213 0.853 0.747 1.387 1.787 1.387 2.933z"></path>
<path fill="none"   stroke-linejoin="round" stroke-linecap="round" stroke-miterlimit="4" stroke-width="2" d="M29.333 14.627v2.747c0 0.733-0.587 1.333-1.333 1.36h-2.613c-1.44 0-2.76-1.053-2.88-2.493-0.080-0.84 0.24-1.627 0.8-2.173 0.493-0.507 1.173-0.8 1.92-0.8h2.773c0.747 0.027 1.333 0.627 1.333 1.36z"></path>
<path fill="none"  stroke-linejoin="round" stroke-linecap="round" stroke-miterlimit="4" stroke-width="2" d="M2.667 14v-2.667c0-3.627 2.187-6.16 5.587-6.587 0.347-0.053 0.707-0.080 1.080-0.080h12c0.347 0 0.68 0.013 1 0.067 3.44 0.4 5.667 2.947 5.667 6.6v1.933h-2.773c-0.747 0-1.427 0.293-1.92 0.8-0.56 0.547-0.88 1.333-0.8 2.173 0.12 1.44 1.44 2.493 2.88 2.493h2.613v1.933c0 4-2.667 6.667-6.667 6.667h-3.333"></path>
<path stroke="none" d="M54.195 9.693v12.973h-2.128v-12.973h2.128zM61.991 12.213c0.809 0 1.531 0.168 2.165 0.504 0.647 0.336 1.151 0.834 1.512 1.493s0.541 1.456 0.541 2.389v6.067h-2.109v-5.749c0-0.921-0.23-1.624-0.691-2.109-0.46-0.498-1.089-0.747-1.885-0.747s-1.431 0.249-1.904 0.747c-0.46 0.485-0.691 1.188-0.691 2.109v5.749h-2.128v-10.285h2.128v1.176c0.348-0.423 0.79-0.753 1.325-0.989 0.548-0.236 1.126-0.355 1.736-0.355zM68.028 17.515c0-1.058 0.212-1.985 0.635-2.781 0.436-0.809 1.033-1.431 1.792-1.867s1.63-0.653 2.613-0.653c1.244 0 2.271 0.299 3.080 0.896 0.821 0.585 1.375 1.425 1.661 2.52h-2.296c-0.187-0.51-0.485-0.908-0.896-1.195s-0.927-0.429-1.549-0.429c-0.871 0-1.568 0.311-2.091 0.933-0.51 0.61-0.765 1.468-0.765 2.576s0.255 1.972 0.765 2.595c0.523 0.622 1.22 0.933 2.091 0.933 1.232 0 2.047-0.541 2.445-1.624h2.296c-0.299 1.045-0.859 1.879-1.68 2.501-0.821 0.61-1.842 0.915-3.061 0.915-0.983 0-1.854-0.218-2.613-0.653-0.759-0.448-1.356-1.070-1.792-1.867-0.423-0.809-0.635-1.742-0.635-2.8zM84.205 22.835c-0.971 0-1.848-0.218-2.632-0.653-0.784-0.448-1.4-1.070-1.848-1.867-0.448-0.809-0.672-1.742-0.672-2.8 0-1.045 0.23-1.972 0.691-2.781s1.089-1.431 1.885-1.867c0.797-0.436 1.686-0.653 2.669-0.653s1.873 0.218 2.669 0.653c0.797 0.436 1.425 1.058 1.885 1.867s0.691 1.736 0.691 2.781-0.236 1.972-0.709 2.781c-0.473 0.809-1.12 1.437-1.941 1.885-0.809 0.436-1.705 0.653-2.688 0.653zM84.205 20.987c0.548 0 1.058-0.131 1.531-0.392 0.485-0.261 0.877-0.653 1.176-1.176s0.448-1.157 0.448-1.904c0-0.747-0.143-1.375-0.429-1.885-0.286-0.523-0.666-0.915-1.139-1.176s-0.983-0.392-1.531-0.392c-0.547 0-1.058 0.131-1.531 0.392-0.46 0.261-0.827 0.653-1.101 1.176-0.274 0.51-0.411 1.139-0.411 1.885 0 1.108 0.28 1.966 0.84 2.576 0.573 0.597 1.288 0.896 2.147 0.896zM103.911 12.213c0.809 0 1.531 0.168 2.165 0.504 0.647 0.336 1.151 0.834 1.512 1.493 0.373 0.66 0.56 1.456 0.56 2.389v6.067h-2.109v-5.749c0-0.921-0.23-1.624-0.691-2.109-0.461-0.498-1.089-0.747-1.885-0.747s-1.431 0.249-1.904 0.747c-0.461 0.485-0.691 1.188-0.691 2.109v5.749h-2.109v-5.749c0-0.921-0.23-1.624-0.691-2.109-0.461-0.498-1.089-0.747-1.885-0.747s-1.431 0.249-1.904 0.747c-0.461 0.485-0.691 1.188-0.691 2.109v5.749h-2.128v-10.285h2.128v1.176c0.348-0.423 0.79-0.753 1.325-0.989s1.107-0.355 1.717-0.355c0.821 0 1.555 0.174 2.203 0.523s1.145 0.852 1.493 1.512c0.311-0.622 0.796-1.114 1.456-1.475 0.659-0.373 1.369-0.56 2.128-0.56zM120.096 17.272c0 0.386-0.025 0.734-0.075 1.045h-7.859c0.062 0.821 0.367 1.481 0.915 1.979s1.22 0.747 2.016 0.747c1.145 0 1.954-0.479 2.427-1.437h2.296c-0.311 0.946-0.877 1.724-1.699 2.333-0.809 0.597-1.817 0.896-3.024 0.896-0.983 0-1.867-0.218-2.651-0.653-0.771-0.448-1.381-1.070-1.829-1.867-0.435-0.809-0.653-1.742-0.653-2.8s0.212-1.985 0.635-2.781c0.436-0.809 1.039-1.431 1.811-1.867 0.784-0.436 1.68-0.653 2.688-0.653 0.971 0 1.836 0.212 2.595 0.635s1.35 1.020 1.773 1.792c0.423 0.759 0.635 1.636 0.635 2.632zM117.875 16.6c-0.012-0.784-0.292-1.412-0.84-1.885s-1.226-0.709-2.035-0.709c-0.734 0-1.363 0.236-1.885 0.709-0.523 0.46-0.834 1.089-0.933 1.885h5.693z"></path>
<path fill="none" stroke="#9197b3" style="stroke: var(--color2, #9197b3)" stroke-linejoin="round" stroke-linecap="round" stroke-miterlimit="4" stroke-width="2.6667" d="M294.667 21.333l5.333-5.333-5.333-5.333"></path>
</symbol>
<symbol id="icon-prod" viewBox="0 0 308 32">
<path  d="M20 30.333h-8c-7.24 0-10.333-3.093-10.333-10.333v-8c0-7.24 3.093-10.333 10.333-10.333h8c7.24 0 10.333 3.093 10.333 10.333v8c0 7.24-3.093 10.333-10.333 10.333zM12 3.667c-6.147 0-8.333 2.187-8.333 8.333v8c0 6.147 2.187 8.333 8.333 8.333h8c6.147 0 8.333-2.187 8.333-8.333v-8c0-6.147-2.187-8.333-8.333-8.333h-8z"></path>
<path d="M16.001 17.44c-0.173 0-0.347-0.040-0.507-0.133l-7.067-4.080c-0.48-0.28-0.64-0.893-0.36-1.36 0.28-0.48 0.893-0.64 1.36-0.36l6.56 3.8 6.52-3.773c0.48-0.28 1.093-0.107 1.36 0.36s0.107 1.093-0.36 1.36l-7.013 4.053c-0.147 0.080-0.32 0.133-0.493 0.133z"></path>
<path d="M16 24.693c-0.547 0-1-0.453-1-1v-7.253c0-0.547 0.453-1 1-1s1 0.453 1 1v7.253c0 0.547-0.453 1-1 1z"></path>
<path d="M16 25c-0.773 0-1.533-0.173-2.147-0.507l-4.267-2.373c-1.28-0.707-2.267-2.4-2.267-3.867v-4.52c0-1.453 1-3.147 2.267-3.867l4.267-2.373c1.227-0.68 3.067-0.68 4.293 0l4.267 2.373c1.28 0.707 2.267 2.4 2.267 3.867v4.52c0 1.453-1 3.147-2.267 3.867l-4.267 2.373c-0.613 0.347-1.373 0.507-2.147 0.507zM16 9c-0.44 0-0.867 0.080-1.173 0.253l-4.267 2.373c-0.653 0.36-1.24 1.373-1.24 2.107v4.52c0 0.747 0.587 1.747 1.24 2.107l4.267 2.373c0.613 0.347 1.733 0.347 2.347 0l4.267-2.373c0.653-0.36 1.24-1.373 1.24-2.107v-4.52c0-0.747-0.587-1.747-1.24-2.107l-4.267-2.373c-0.307-0.173-0.733-0.253-1.173-0.253z"></path>
<path d="M61.139 13.557c0 0.66-0.156 1.282-0.467 1.867s-0.809 1.064-1.493 1.437c-0.684 0.361-1.562 0.541-2.632 0.541h-2.352v5.264h-2.128v-12.973h4.48c0.996 0 1.836 0.174 2.52 0.523 0.697 0.336 1.213 0.796 1.549 1.381 0.348 0.585 0.523 1.238 0.523 1.96zM56.547 15.667c0.809 0 1.412-0.18 1.811-0.541 0.398-0.373 0.597-0.896 0.597-1.568 0-1.419-0.803-2.128-2.408-2.128h-2.352v4.237h2.352zM65.11 13.875c0.311-0.523 0.722-0.927 1.232-1.213 0.523-0.299 1.139-0.448 1.848-0.448v2.203h-0.541c-0.834 0-1.469 0.212-1.904 0.635-0.423 0.423-0.635 1.157-0.635 2.203v5.413h-2.128v-10.285h2.128v1.493zM74.42 22.835c-0.971 0-1.848-0.218-2.632-0.653-0.784-0.448-1.4-1.070-1.848-1.867-0.448-0.809-0.672-1.742-0.672-2.8 0-1.045 0.23-1.972 0.691-2.781s1.089-1.431 1.885-1.867c0.797-0.436 1.686-0.653 2.669-0.653s1.873 0.218 2.669 0.653c0.797 0.436 1.425 1.058 1.885 1.867s0.691 1.736 0.691 2.781-0.236 1.972-0.709 2.781c-0.473 0.809-1.12 1.437-1.941 1.885-0.809 0.436-1.705 0.653-2.688 0.653zM74.42 20.987c0.548 0 1.058-0.131 1.531-0.392 0.485-0.261 0.877-0.653 1.176-1.176s0.448-1.157 0.448-1.904c0-0.747-0.143-1.375-0.429-1.885-0.286-0.523-0.666-0.915-1.139-1.176s-0.983-0.392-1.531-0.392c-0.547 0-1.058 0.131-1.531 0.392-0.46 0.261-0.827 0.653-1.101 1.176-0.274 0.51-0.411 1.139-0.411 1.885 0 1.108 0.28 1.966 0.84 2.576 0.573 0.597 1.288 0.896 2.147 0.896zM80.967 17.477c0-1.033 0.211-1.948 0.635-2.744 0.435-0.796 1.020-1.412 1.755-1.848 0.747-0.448 1.574-0.672 2.483-0.672 0.672 0 1.331 0.149 1.979 0.448 0.659 0.286 1.182 0.672 1.568 1.157v-4.965h2.147v13.813h-2.147v-1.549c-0.349 0.498-0.834 0.908-1.456 1.232-0.61 0.324-1.313 0.485-2.109 0.485-0.896 0-1.717-0.224-2.464-0.672-0.734-0.46-1.319-1.095-1.755-1.904-0.423-0.821-0.635-1.748-0.635-2.781zM89.385 17.515c0-0.709-0.149-1.325-0.448-1.848-0.286-0.523-0.666-0.921-1.139-1.195s-0.983-0.411-1.531-0.411c-0.548 0-1.058 0.137-1.531 0.411-0.473 0.261-0.859 0.653-1.157 1.176-0.286 0.51-0.429 1.12-0.429 1.829s0.143 1.332 0.429 1.867c0.299 0.535 0.684 0.946 1.157 1.232 0.485 0.274 0.995 0.411 1.531 0.411 0.547 0 1.058-0.137 1.531-0.411s0.852-0.672 1.139-1.195c0.299-0.535 0.448-1.157 0.448-1.867zM103.455 12.381v10.285h-2.128v-1.213c-0.336 0.423-0.778 0.759-1.325 1.008-0.535 0.236-1.107 0.355-1.717 0.355-0.809 0-1.537-0.168-2.184-0.504-0.635-0.336-1.139-0.834-1.512-1.493-0.361-0.66-0.541-1.456-0.541-2.389v-6.048h2.109v5.731c0 0.921 0.23 1.63 0.691 2.128 0.461 0.485 1.089 0.728 1.885 0.728s1.425-0.243 1.885-0.728c0.473-0.498 0.709-1.207 0.709-2.128v-5.731h2.128zM105.367 17.515c0-1.058 0.212-1.985 0.635-2.781 0.436-0.809 1.033-1.431 1.792-1.867s1.63-0.653 2.613-0.653c1.245 0 2.271 0.299 3.080 0.896 0.821 0.585 1.375 1.425 1.661 2.52h-2.296c-0.187-0.51-0.485-0.908-0.896-1.195s-0.927-0.429-1.549-0.429c-0.871 0-1.568 0.311-2.091 0.933-0.51 0.61-0.765 1.468-0.765 2.576s0.255 1.972 0.765 2.595c0.523 0.622 1.22 0.933 2.091 0.933 1.232 0 2.047-0.541 2.445-1.624h2.296c-0.299 1.045-0.859 1.879-1.68 2.501-0.821 0.61-1.842 0.915-3.061 0.915-0.983 0-1.854-0.218-2.613-0.653-0.759-0.448-1.356-1.070-1.792-1.867-0.423-0.809-0.635-1.742-0.635-2.8zM119.565 14.117v5.693c0 0.386 0.087 0.666 0.261 0.84 0.187 0.162 0.498 0.243 0.933 0.243h1.307v1.773h-1.68c-0.958 0-1.693-0.224-2.203-0.672s-0.765-1.176-0.765-2.184v-5.693h-1.213v-1.736h1.213v-2.557h2.147v2.557h2.501v1.736h-2.501z"></path>
<path fill="none"  style="stroke:  #9197b3" stroke-linejoin="round" stroke-linecap="round" stroke-miterlimit="4" stroke-width="2.6667" d="M294.667 21.333l5.333-5.333-5.333-5.333"></path>
</symbol>
<symbol id="icon-prom" viewBox="0 0 308 32">
<path d="M16 30.334c-0.84 0-1.627-0.32-2.213-0.92l-2.027-2.027c-0.16-0.16-0.587-0.333-0.8-0.333h-2.88c-1.733 0-3.133-1.4-3.133-3.133v-2.88c0-0.213-0.173-0.64-0.333-0.8l-2.027-2.027c-0.587-0.587-0.92-1.373-0.92-2.213s0.32-1.627 0.92-2.213l2.027-2.027c0.16-0.16 0.333-0.587 0.333-0.8v-2.88c0-1.733 1.4-3.133 3.133-3.133h2.88c0.213 0 0.64-0.173 0.8-0.333l2.027-2.027c1.173-1.173 3.253-1.173 4.427 0l2.027 2.027c0.16 0.16 0.587 0.333 0.8 0.333h2.88c1.733 0 3.133 1.4 3.133 3.133v2.88c0 0.213 0.173 0.64 0.333 0.8l2.027 2.027c0.587 0.587 0.92 1.373 0.92 2.213s-0.32 1.627-0.92 2.213l-2.027 2.027c-0.16 0.16-0.333 0.587-0.333 0.8v2.88c0 1.733-1.4 3.133-3.133 3.133h-2.88c-0.213 0-0.64 0.173-0.8 0.333l-2.027 2.027c-0.587 0.6-1.373 0.92-2.213 0.92zM6.027 18.827c0.533 0.533 0.92 1.467 0.92 2.213v2.88c0 0.627 0.507 1.133 1.133 1.133h2.88c0.747 0 1.68 0.387 2.213 0.92l2.027 2.027c0.427 0.427 1.173 0.427 1.6 0l2.027-2.027c0.533-0.533 1.467-0.92 2.213-0.92h2.88c0.627 0 1.133-0.507 1.133-1.133v-2.88c0-0.747 0.387-1.68 0.92-2.213l2.027-2.027c0.213-0.213 0.333-0.493 0.333-0.8s-0.12-0.587-0.333-0.8l-2.027-2.027c-0.533-0.533-0.92-1.467-0.92-2.213v-2.88c0-0.627-0.507-1.133-1.133-1.133h-2.88c-0.747 0-1.68-0.387-2.213-0.92l-2.027-2.027c-0.427-0.427-1.173-0.427-1.6 0l-2.027 2.027c-0.533 0.533-1.467 0.92-2.213 0.92h-2.88c-0.627 0-1.133 0.507-1.133 1.133v2.88c0 0.747-0.387 1.68-0.92 2.213l-2.027 2.027c-0.213 0.213-0.333 0.493-0.333 0.8s0.12 0.587 0.333 0.8l2.027 2.027z"></path>
<path d="M20 21.333c-0.747 0-1.347-0.6-1.347-1.333s0.6-1.333 1.333-1.333c0.733 0 1.333 0.6 1.333 1.333s-0.587 1.333-1.32 1.333z"></path>
<path d="M12.013 13.333c-0.747 0-1.347-0.6-1.347-1.333s0.6-1.333 1.333-1.333c0.733 0 1.333 0.6 1.333 1.333s-0.587 1.333-1.32 1.333z"></path>
<path d="M11.999 20.999c-0.253 0-0.507-0.093-0.707-0.293-0.387-0.387-0.387-1.027 0-1.413l8-8c0.387-0.387 1.027-0.387 1.413 0s0.387 1.027 0 1.413l-8 8c-0.2 0.2-0.453 0.293-0.707 0.293z"></path>
<path d="M61.139 13.557c0 0.66-0.156 1.282-0.467 1.867s-0.809 1.064-1.493 1.437c-0.684 0.361-1.562 0.541-2.632 0.541h-2.352v5.264h-2.128v-12.973h4.48c0.996 0 1.836 0.174 2.52 0.523 0.697 0.336 1.213 0.796 1.549 1.381 0.348 0.585 0.523 1.238 0.523 1.96zM56.547 15.667c0.809 0 1.412-0.18 1.811-0.541 0.398-0.373 0.597-0.896 0.597-1.568 0-1.419-0.803-2.128-2.408-2.128h-2.352v4.237h2.352zM65.11 13.875c0.311-0.523 0.722-0.927 1.232-1.213 0.523-0.299 1.139-0.448 1.848-0.448v2.203h-0.541c-0.834 0-1.469 0.212-1.904 0.635-0.423 0.423-0.635 1.157-0.635 2.203v5.413h-2.128v-10.285h2.128v1.493zM74.42 22.835c-0.971 0-1.848-0.218-2.632-0.653-0.784-0.448-1.4-1.070-1.848-1.867-0.448-0.809-0.672-1.742-0.672-2.8 0-1.045 0.23-1.972 0.691-2.781s1.089-1.431 1.885-1.867c0.797-0.436 1.686-0.653 2.669-0.653s1.873 0.218 2.669 0.653c0.797 0.436 1.425 1.058 1.885 1.867s0.691 1.736 0.691 2.781-0.236 1.972-0.709 2.781c-0.473 0.809-1.12 1.437-1.941 1.885-0.809 0.436-1.705 0.653-2.688 0.653zM74.42 20.987c0.548 0 1.058-0.131 1.531-0.392 0.485-0.261 0.877-0.653 1.176-1.176s0.448-1.157 0.448-1.904c0-0.747-0.143-1.375-0.429-1.885-0.286-0.523-0.666-0.915-1.139-1.176s-0.983-0.392-1.531-0.392c-0.547 0-1.058 0.131-1.531 0.392-0.46 0.261-0.827 0.653-1.101 1.176-0.274 0.51-0.411 1.139-0.411 1.885 0 1.108 0.28 1.966 0.84 2.576 0.573 0.597 1.288 0.896 2.147 0.896zM94.127 12.213c0.809 0 1.531 0.168 2.165 0.504 0.647 0.336 1.151 0.834 1.512 1.493 0.373 0.66 0.56 1.456 0.56 2.389v6.067h-2.109v-5.749c0-0.921-0.23-1.624-0.691-2.109-0.461-0.498-1.089-0.747-1.885-0.747s-1.431 0.249-1.904 0.747c-0.461 0.485-0.691 1.188-0.691 2.109v5.749h-2.109v-5.749c0-0.921-0.23-1.624-0.691-2.109-0.461-0.498-1.089-0.747-1.885-0.747s-1.431 0.249-1.904 0.747c-0.461 0.485-0.691 1.188-0.691 2.109v5.749h-2.128v-10.285h2.128v1.176c0.348-0.423 0.79-0.753 1.325-0.989s1.107-0.355 1.717-0.355c0.821 0 1.555 0.174 2.203 0.523s1.145 0.852 1.493 1.512c0.311-0.622 0.796-1.114 1.456-1.475 0.659-0.373 1.369-0.56 2.128-0.56zM105.346 22.835c-0.971 0-1.848-0.218-2.632-0.653-0.784-0.448-1.4-1.070-1.848-1.867-0.448-0.809-0.672-1.742-0.672-2.8 0-1.045 0.23-1.972 0.691-2.781s1.089-1.431 1.885-1.867c0.797-0.436 1.686-0.653 2.669-0.653s1.873 0.218 2.669 0.653c0.797 0.436 1.425 1.058 1.885 1.867s0.691 1.736 0.691 2.781-0.236 1.972-0.709 2.781c-0.473 0.809-1.12 1.437-1.941 1.885-0.809 0.436-1.705 0.653-2.688 0.653zM105.346 20.987c0.548 0 1.058-0.131 1.531-0.392 0.485-0.261 0.877-0.653 1.176-1.176s0.448-1.157 0.448-1.904c0-0.747-0.143-1.375-0.429-1.885-0.286-0.523-0.666-0.915-1.139-1.176s-0.983-0.392-1.531-0.392c-0.547 0-1.058 0.131-1.531 0.392-0.46 0.261-0.827 0.653-1.101 1.176-0.274 0.51-0.411 1.139-0.411 1.885 0 1.108 0.28 1.966 0.84 2.576 0.573 0.597 1.288 0.896 2.147 0.896zM115.085 14.117v5.693c0 0.386 0.087 0.666 0.261 0.84 0.187 0.162 0.498 0.243 0.933 0.243h1.307v1.773h-1.68c-0.958 0-1.693-0.224-2.203-0.672s-0.765-1.176-0.765-2.184v-5.693h-1.213v-1.736h1.213v-2.557h2.147v2.557h2.501v1.736h-2.501zM128.787 17.272c0 0.386-0.025 0.734-0.075 1.045h-7.859c0.062 0.821 0.367 1.481 0.915 1.979s1.22 0.747 2.016 0.747c1.145 0 1.954-0.479 2.427-1.437h2.296c-0.311 0.946-0.877 1.724-1.699 2.333-0.809 0.597-1.817 0.896-3.024 0.896-0.983 0-1.867-0.218-2.651-0.653-0.771-0.448-1.381-1.070-1.829-1.867-0.435-0.809-0.653-1.742-0.653-2.8s0.212-1.985 0.635-2.781c0.436-0.809 1.039-1.431 1.811-1.867 0.784-0.436 1.68-0.653 2.688-0.653 0.971 0 1.836 0.212 2.595 0.635s1.35 1.020 1.773 1.792c0.423 0.759 0.635 1.636 0.635 2.632zM126.566 16.6c-0.012-0.784-0.292-1.412-0.84-1.885s-1.226-0.709-2.035-0.709c-0.734 0-1.363 0.236-1.885 0.709-0.523 0.46-0.834 1.089-0.933 1.885h5.693z"></path>

<path fill="none" stroke="#9197b3" style="stroke: var(--color2, #9197b3)" stroke-linejoin="round" stroke-linecap="round" stroke-miterlimit="4" stroke-width="2.6667" d="M294.667 21.333l5.333-5.333-5.333-5.333"></path></symbol>
</defs>
</svg>

