<svg aria-hidden="true" style="position: absolute; width: 0; height: 0; overflow: hidden;" version="1.1" xmlns="http://www.w3.org/2000/svg" xmlns:xlink="http://www.w3.org/1999/xlink">
<defs>
<symbol id="icon-iconLogo" viewBox="0 0 32 32">
<path d="M16 30.173c-0.893 0-1.8-0.201-2.506-0.614l-7.334-4.227c-2.986-2.013-3.172-2.32-3.172-5.48v-7.706c0-3.161 0.173-3.468 3.107-5.454l7.386-4.266c1.401-0.813 3.6-0.813 5.001 0l7.36 4.24c2.986 2.013 3.173 2.32 3.173 5.48v7.694c0 3.159-0.173 3.466-3.107 5.453l-7.387 4.266c-0.72 0.413-1.626 0.614-2.52 0.614zM16 3.826c-0.56 0-1.107 0.107-1.493 0.334l-7.334 4.24c-2.173 1.467-2.173 1.467-2.173 3.747v7.694c0 2.28 0 2.28 2.226 3.786l7.28 4.2c0.787 0.453 2.213 0.453 2.999 0l7.334-4.24c2.16-1.467 2.16-1.467 2.16-3.747v-7.694c0-2.28 0-2.28-2.227-3.786l-7.28-4.2c-0.387-0.227-0.934-0.334-1.494-0.334z"></path>
<path d="M16 21c-2.761-0.001-4.999-2.239-5-5v-0c0.001-2.761 2.239-4.999 5-5h0c2.761 0.001 4.999 2.239 5 5v0c-0.001 2.761-2.239 4.999-5 5h-0zM16 13c-1.656 0.002-2.998 1.344-3 3v0c0.002 1.656 1.344 2.998 3 3h0c1.656-0.002 2.998-1.344 3-3v-0c-0.002-1.656-1.344-2.998-3-3h-0z"></path>
</symbol>
<symbol id="icon-logo" viewBox="0 0 224 32">
<path d="M10.877 2.822c2.906 0 5.455 0.568 7.646 1.704 2.219 1.135 3.922 2.76 5.111 4.873 1.214 2.088 1.822 4.517 1.822 7.29s-0.608 5.204-1.822 7.29c-1.189 2.060-2.892 3.657-5.111 4.794-2.193 1.135-4.741 1.704-7.646 1.704h-9.667v-27.654h9.667zM10.679 25.762c2.906 0 5.15-0.792 6.735-2.377s2.377-3.817 2.377-6.696c0-2.88-0.792-5.125-2.377-6.735-1.585-1.638-3.829-2.456-6.735-2.456h-3.922v18.264h3.922zM28.579 19.422c0-2.219 0.436-4.186 1.307-5.903 0.899-1.717 2.1-3.037 3.605-3.962 1.531-0.925 3.235-1.387 5.111-1.387 1.637 0 3.063 0.331 4.279 0.99 1.24 0.66 2.231 1.493 2.971 2.496v-3.13h5.586v21.949h-5.588v-3.209c-0.713 1.030-1.704 1.89-2.971 2.575-1.242 0.66-2.682 0.99-4.318 0.99-0.025 0-0.055 0-0.085 0-1.847 0-3.571-0.531-5.025-1.45l0.039 0.023c-1.506-0.951-2.708-2.286-3.605-4.002-0.872-1.743-1.307-3.738-1.307-5.982zM45.853 19.502c0-1.347-0.265-2.496-0.792-3.447-0.529-0.977-1.242-1.717-2.139-2.219-0.821-0.498-1.813-0.792-2.874-0.792-0.006 0-0.013 0-0.019 0h0.001c-1.030 0-1.981 0.251-2.853 0.753-0.872 0.503-1.585 1.242-2.139 2.219-0.529 0.951-0.792 2.088-0.792 3.407 0 1.321 0.264 2.484 0.792 3.486 0.555 0.977 1.268 1.73 2.139 2.258 0.899 0.529 1.848 0.792 2.853 0.792 0.007 0 0.016 0 0.025 0 1.054 0 2.042-0.279 2.896-0.768l-0.029 0.015c0.904-0.54 1.63-1.291 2.124-2.189l0.015-0.030c0.527-0.977 0.792-2.139 0.792-3.486zM65.652 30.833c-1.797 0-3.407-0.317-4.834-0.951-1.426-0.66-2.562-1.545-3.407-2.654-0.773-1.018-1.267-2.287-1.346-3.666l-0.001-0.018h5.586c0.107 0.846 0.515 1.545 1.228 2.1 0.739 0.555 1.65 0.832 2.734 0.832 1.056 0 1.874-0.212 2.456-0.634 0.606-0.422 0.911-0.965 0.911-1.624 0-0.713-0.37-1.242-1.109-1.585-0.713-0.37-1.862-0.766-3.447-1.189-1.638-0.396-2.985-0.806-4.041-1.228-1.069-0.448-1.97-1.108-2.687-1.933l-0.008-0.009c-0.739-0.872-1.109-2.046-1.109-3.526 0-1.214 0.343-2.324 1.030-3.328 0.713-1.004 1.717-1.797 3.011-2.377 1.321-0.581 2.865-0.872 4.635-0.872 2.615 0 4.701 0.66 6.26 1.981 1.559 1.295 2.417 3.051 2.575 5.269h-5.309c-0.079-0.872-0.45-1.559-1.109-2.060-0.634-0.529-1.493-0.792-2.575-0.792-1.004 0-1.783 0.184-2.338 0.555-0.529 0.37-0.792 0.884-0.792 1.545 0 0.739 0.369 1.307 1.109 1.704 0.739 0.37 1.89 0.753 3.447 1.149 1.585 0.396 2.892 0.806 3.922 1.228s1.915 1.082 2.654 1.981c0.765 0.872 1.161 2.034 1.189 3.486 0 1.268-0.357 2.403-1.070 3.407-0.686 1.004-1.691 1.797-3.011 2.377-1.295 0.555-2.813 0.832-4.556 0.832zM91.599 8.21c1.664 0 3.142 0.37 4.437 1.109 1.295 0.713 2.298 1.783 3.011 3.209 0.739 1.4 1.109 3.090 1.109 5.071v12.876h-5.547v-12.123c0-1.743-0.436-3.078-1.307-4.002-0.872-0.951-2.060-1.426-3.566-1.426-1.533 0-2.747 0.475-3.645 1.426-0.872 0.925-1.307 2.258-1.307 4.002v12.123h-5.547v-29.318h5.547v10.103c0.713-0.951 1.664-1.691 2.853-2.219 1.189-0.555 2.508-0.832 3.962-0.832zM111.374 11.736c0.713-1.056 1.691-1.915 2.932-2.575 1.268-0.66 2.708-0.99 4.318-0.99 1.874 0 3.566 0.462 5.071 1.387 1.533 0.925 2.734 2.245 3.605 3.962 0.899 1.691 1.347 3.657 1.347 5.903 0 2.245-0.448 4.239-1.347 5.982-0.872 1.717-2.072 3.051-3.605 4.002-1.506 0.951-3.195 1.426-5.071 1.426-1.637 0-3.078-0.317-4.318-0.951-1.214-0.66-2.191-1.506-2.932-2.536v3.13h-5.547v-29.318h5.547v10.578zM122.982 19.422c0-1.321-0.277-2.456-0.832-3.407-0.527-0.977-1.24-1.717-2.139-2.219-0.806-0.473-1.775-0.753-2.81-0.753-0.015 0-0.030 0-0.045 0h0.002c-1.003 0-1.954 0.264-2.853 0.792-0.872 0.503-1.585 1.242-2.139 2.219-0.527 0.977-0.792 2.126-0.792 3.447s0.265 2.469 0.792 3.447c0.555 0.977 1.268 1.73 2.139 2.258 0.818 0.473 1.8 0.753 2.847 0.753 0.002 0 0.004 0 0.006 0h-0c1.030 0 1.981-0.264 2.853-0.792 0.91-0.547 1.638-1.313 2.124-2.227l0.015-0.031c0.555-0.977 0.832-2.139 0.832-3.486zM142.822 30.833c-2.114 0-4.015-0.462-5.707-1.387-1.687-0.956-3.046-2.315-3.975-3.95l-0.027-0.052c-0.951-1.717-1.426-3.698-1.426-5.943s0.489-4.226 1.466-5.943c0.978-1.682 2.364-3.030 4.027-3.935l0.054-0.027c1.717-0.951 3.633-1.426 5.745-1.426 2.114 0 4.029 0.475 5.745 1.426 1.71 0.925 3.086 2.275 4.015 3.912l0.026 0.050c1.004 1.717 1.506 3.698 1.506 5.943s-0.515 4.226-1.545 5.943c-0.991 1.696-2.39 3.056-4.066 3.974l-0.055 0.027c-1.716 0.925-3.645 1.387-5.784 1.387zM142.822 25.999c1.003 0 1.94-0.238 2.811-0.713 0.899-0.503 1.612-1.242 2.139-2.219 0.529-0.977 0.792-2.165 0.792-3.566 0-2.088-0.555-3.685-1.664-4.794-1.082-1.135-2.417-1.704-4.002-1.704s-2.918 0.568-4.002 1.704c-1.056 1.109-1.585 2.708-1.585 4.794 0 2.088 0.515 3.698 1.545 4.834 1.058 1.109 2.377 1.664 3.962 1.664zM157.309 19.422c0-2.219 0.436-4.186 1.307-5.903 0.899-1.717 2.1-3.037 3.605-3.962 1.533-0.925 3.237-1.387 5.111-1.387 1.638 0 3.064 0.331 4.279 0.99 1.242 0.66 2.232 1.493 2.971 2.496v-3.13h5.586v21.949h-5.586v-3.209c-0.713 1.030-1.704 1.89-2.971 2.575-1.24 0.66-2.68 0.99-4.318 0.99-0.025 0-0.054 0-0.083 0-1.848 0-3.572-0.531-5.027-1.45l0.039 0.023c-1.506-0.951-2.706-2.286-3.605-4.002-0.872-1.743-1.307-3.738-1.307-5.982zM174.583 19.502c0-1.347-0.264-2.496-0.792-3.447-0.527-0.977-1.24-1.717-2.139-2.219-0.821-0.498-1.813-0.792-2.874-0.792-0.006 0-0.013 0-0.019 0h0.001c-1.030 0-1.981 0.251-2.853 0.753-0.872 0.503-1.585 1.242-2.139 2.219-0.527 0.951-0.792 2.088-0.792 3.407 0 1.321 0.265 2.484 0.792 3.486 0.555 0.977 1.268 1.73 2.139 2.258 0.899 0.529 1.85 0.792 2.853 0.792 1.030 0 1.995-0.251 2.892-0.753 0.904-0.539 1.631-1.291 2.124-2.189l0.015-0.030c0.529-0.977 0.792-2.139 0.792-3.486zM191.529 11.934c0.692-1.135 1.627-2.057 2.738-2.714l0.037-0.020c1.161-0.66 2.482-0.99 3.96-0.99v5.824h-1.466c-1.742 0-3.063 0.41-3.96 1.228-0.873 0.818-1.309 2.245-1.309 4.279v10.935h-5.547v-21.949h5.547v3.407zM200.971 19.422c0-2.219 0.436-4.186 1.307-5.903 0.899-1.717 2.114-3.037 3.645-3.962 1.533-0.925 3.237-1.387 5.111-1.387 1.426 0 2.787 0.317 4.081 0.951 1.295 0.608 2.325 1.426 3.090 2.456v-10.42h5.626v29.318h-5.626v-3.249c-0.686 1.082-1.65 1.955-2.892 2.615-1.24 0.66-2.68 0.99-4.318 0.99-0.025 0-0.054 0-0.083 0-1.848 0-3.572-0.531-5.027-1.45l0.039 0.023c-1.531-0.951-2.746-2.286-3.645-4.002-0.872-1.743-1.307-3.738-1.307-5.982zM218.245 19.502c0-1.347-0.264-2.496-0.792-3.447-0.527-0.977-1.24-1.717-2.139-2.219-0.821-0.498-1.813-0.792-2.874-0.792-0.006 0-0.013 0-0.019 0h0.001c-1.030 0-1.981 0.251-2.853 0.753-0.872 0.503-1.585 1.242-2.139 2.219-0.527 0.951-0.792 2.088-0.792 3.407 0 1.321 0.265 2.484 0.792 3.486 0.555 0.977 1.268 1.73 2.139 2.258 0.899 0.529 1.85 0.792 2.853 0.792 1.030 0 1.995-0.251 2.892-0.753 0.904-0.539 1.631-1.291 2.124-2.189l0.015-0.030c0.529-0.977 0.792-2.139 0.792-3.486z"></path>
</symbol>
<symbol id="icon-v01" viewBox="0 0 60 32">
<path fill="#838383" style="fill: var(--color1, #838383)" d="M10.24 24.818l5.547-15.964h4.302l-7.467 19.591h-4.836l-7.431-19.591h4.338l5.547 15.964zM24.434 28.693c-0.018 0-0.040 0.001-0.062 0.001-0.699 0-1.332-0.286-1.787-0.747l-0-0c-0.462-0.455-0.747-1.088-0.747-1.787 0-0.022 0-0.043 0.001-0.065l-0 0.003c0-0.736 0.249-1.351 0.747-1.849s1.113-0.747 1.849-0.747c0.711 0 1.316 0.249 1.813 0.747s0.747 1.113 0.747 1.849c0 0.736-0.249 1.351-0.747 1.849s-1.102 0.747-1.813 0.747zM30.485 15.147c0-4.1 0.686-7.3 2.062-9.6 1.397-2.322 3.79-3.484 7.182-3.484 3.388 0 5.771 1.163 7.147 3.484 1.397 2.3 2.098 5.5 2.098 9.6 0 4.149-0.7 7.396-2.098 9.742-1.376 2.322-3.758 3.484-7.147 3.484-3.392 0-5.785-1.163-7.182-3.484-1.376-2.347-2.062-5.593-2.062-9.742zM44.992 15.147c0-1.92-0.132-3.545-0.391-4.871-0.238-1.326-0.736-2.407-1.493-3.236-0.757-0.853-1.884-1.28-3.378-1.28s-2.62 0.427-3.378 1.28c-0.757 0.828-1.269 1.909-1.529 3.236-0.238 1.326-0.356 2.951-0.356 4.871 0 1.991 0.117 3.662 0.356 5.013 0.235 1.351 0.736 2.443 1.493 3.271 0.782 0.828 1.92 1.244 3.413 1.244s2.62-0.416 3.378-1.244c0.782-0.828 1.291-1.92 1.529-3.271 0.235-1.351 0.356-3.022 0.356-5.013zM52.373 6.222v-3.698h7.396v25.92h-4.089v-22.222h-3.307z"></path>
</symbol>
</defs>
</svg>
